/* XPM */
static char *dde5070909b44b4598817fc496ea57318EKlP84fFZfJQv5H[] = {
/* columns rows colors chars-per-pixel */
"63 64 18 1 ",
"  c #008080",
". c #2C2C2C",
"X c gray33",
"o c #202020",
"O c #484848",
"+ c gainsboro",
"@ c gray66",
"# c gray44",
"$ c #C0C0C0",
"% c #D0D0D0",
"& c #7C7C7C",
"* c gray22",
"= c gray55",
"- c #646464",
"; c #B4B4B4",
": c #989898",
"> c #ECECEC",
", c white",
/* pixels */
"                                                               ",
"...............................................................",
"XXXXXXXXXXXXXXXXXXoooooXXXXOOOOOOOOXXXXXXXXXXXXXXXXXXXXXXXXXXXX",
"++++++++++++++++++++@#oXO@$+++++++%@&O*XX#@+++$@==#-XOOOOOOOOOX",
"+++$$$$$$$$$$$$$$$$$#XoX@++%%%%%%%%%@&*OX@++++++++++++++++%$$;:",
"++$=:@@@@@:@@=@=@@@=XXoX;+$=@=@@@=@@&X*OX++%@=@=$$%++++++++++++",
"+$@@@&=@@:@:@@:@=&=@XXoX;$=::@=@=@@=-X*OX++==@====@===@@==@@==@",
";$=@=@&@=::==&:=@=@=#XoX;$@=@=@=@==@-X*OX++@===:=@==@=&=@=&=@==",
";$:@@=@===::=&:@====&XoX;$=@@:====@=-X*OX+%@===:@==:=@:@=@:@=@:",
"=$=:=@=@:@:@::===:=:&XoX;$=@:==&&@=:-X*OX+%:===@==:&&@::@@::@&:",
"=$==:======:==@=::=:=XoX;$@:===&&===-X*OX+%=&=:@===&==@=@=@=@=:",
"#$@=:@@:=:@=:=::@=:==XoX;$==@=:=::&=-X*OX+%=:@==@:==@:=:::=:::=",
"X$=:=@==:@===&:@=:===XoX;$=@=&=@==&@-X*OX+%=@=@===:==:=##--XXXX",
"X$&@@=:=:@@:=:@===::=XoX;$@=@=@===@=XX.OX+%@==#---XXXXXXXXXXOO*",
"X&XXXXX-#&&:@@=@=@@=&XoO;$===:=@&@=:XX.OX+$#-XXXXXXXXOO**.ooooo",
"oooo*OOXXXXXXXXXXXXXX.oO;$==@::@==:=XX.OX$=XX**.ooooooooooooooo",
"*oooooo..............ooO;$@==&:=@==&XX.OO*oooooooooooo..*****OX",
"&#XO**ooooooooooooooo**O;$=:=@::=:=-XO.OOXXXXXXXXXXXXXXXXXX#&@@",
"++$$@=&XXXXOOO**.oooo**O;$:=&:==&&:-XO.OXXXXX#=$++++$:*XX&:$>>>",
"++++++++++++++++++$@Oo*O;$@=:=@=&&:-XO.OXO:;++++$@@==X*X=$++;$:",
"@$$%+++++++++++++$@#Xo*O;$@:=@===:=XX*.OX:+%@=@=@==@=X*X@+%$$:;",
"@@@:=$$@$@$;@:@@:@=XXo.O;$=@:=@=@=@XX*.OX++==@==:=:==X*X$+;@::@",
"====@:=:=@@=:@=@@=@XXo.O;$::@&=:===XX*.OX++=:@::==@==X*X$+$=:==",
"=:=:@@@@:==@=@==:==XXo.O;$@@=@=&&:=XX..OX;+==@==:=:==XoX$+@===:",
"@@=@:@=:@@:==:=@==:XXooO;$@=@==&&==XXo.OX:+:===:=@=@:XoO++=:@@:",
"==@=:====@=@====:=@XX.o*;$====:===@XXo.OX#+===::=====XoO++@=:==",
"@==:=@:=@::@===@==@XX.o*;$=@&&==@=&XXo.OXO+=:@==@==@:XoO++=@:::",
"XXX##=============#XX.o*;$@=@:&====XXo.OXO+=@=&#XXXXXXoO+@&XXXX",
"XXXXXXXXXXXXXXXXXXXXX.o*;$=@===@=@=XXo.OXO=XXXXX******oO@&XXXXX",
"oooo*****************.o*;$==@:&===:XXo.OXOooooooooooooooooooooo",
"ooooooooooooooooooooooo*;$@@==@=::=XOo.OXO*****....****oooooooo",
"XO**...oooooooooooooooo*;$&=::=:::-XOo.OXXXXXXXXXXXXXXXXXXXX*XX",
"XXXOOOOOOOOOOOOOOOOOo**X;$=@=:==&-XO*o*OXX#@$+++++++++++++$@.*X",
"X#@;+++++++++++++++@o*XX;$@=@:=-XX*.oo*XX#@++++++++++++++$@#..X",
"O@++++++++++++++++@#o*XX;$=&==-XO*ooo*XXX#++$@====@===@=@=#Xo.X",
"O;+;@@@=@=@@=@=@=@#Oo*XX;$==@@XO*oo*XXXXX@++==@==@===@:===X*ooX",
"O++=@=@@@=@:==@===XOo*XX;$@===X*o*X:++$XX$+$:==@===:@==@==X*ooX",
"O++@::=:=@:=@===@=X*o*XX;$=:==X*oX+++$:XX++=:=:=:===:=@:@:X*ooX",
"O++=:=@=:==:===@:=X*o*XX;$@=#-Xoo:+=@@&XX++=@=:=@@:===::=:X*ooX",
"O+@==@=======:@==:X*o*XX;$=:-X*oo+@@::*XO++=:@::@:@=:==::@X*ooX",
"O@###==:=@=@=@=@==X*o*XX;$:=-X*o=+@::=*XO++@=====::@@@@:=@X*ooX",
"OXXXO#@@====@==:=XX*o*XX;;:-XX.o$$:@=#oXO++=@==@@==@=@=@@=X*ooX",
"O**ooOXXXXXXXXXXXXO*o*XX;;-XX*oo+=@::XoXO++@@@=@=@@=@:@=:=X*ooX",
"XXX*oo*************oo*XX;@XX*.o*+@::=XoXO++=:=@=@====:=:=@X*ooX",
"XXXX*oooooooooooooooo*XX@X**.ooX&@@=:XoXO++==:========:==#X*ooX",
"XXXXX**..............*X***.ooo*XoOo*XXoXO+;:#XXXXXXXXXXXXXX*ooX",
"XOOXXXXXXXXXXXXXXXXXXX**oooo*XXXXooooooXO;:#X***************ooX",
":$$$$;:#-XXXXXXXXXXOOOOOOOOOOOOOOXX**ooX**ooooooooooooooooooo*X",
"$++++++++++$:#XXXXO@+++++++++++@=#OOOXXX**.ooooooooooooooooo**X",
"$++%%%%%%%%%%%;X*XO++$$$$$$$$$$+++++@#OO*XX*...............**XX",
"$+%:====@@:=@=-X*XO+$=@=@@:=:@=@=$$$$$$#OO*XXXXOOOOOOXOOOOOOOOo",
"$%:==:@@@:====-X*XO+$:@@=@=@@=@====@=@=$@Oo*XX&@@@@@@@@@@@@@@&o",
"$%=:@===:==@==-XoXO+$=:=@=@====&:=@@====#Xo*X&@+++++++++++++$Xo",
"$%@=@@=@:=@=:&X*oXO+$==@====:==@@@&=@==:XXo*X@++@=@===@@==@==Xo",
"$%@@:=:====@=#X*oX-+$==:====:==@:=@@@:::XXo*X@+$=@====@=@==@=Xo",
"$%=:=@=@=@=:=#X.oX#+$@=&=:=:&&::@:@@=@=#XXo*X@+=@=@=@:==@=:=@Xo",
"$%@=:===:=@=:-Xo.X:+$&==@:==&&=:=@=::@=XX*oOX@+=:=@:===:=@=@=Xo",
"$%=@=:=====@=-Oo*X@+$=:@==@==@:=@:@=@=@XX*oOX@$===:::=@=:=::-Xo",
"$%==:========XOo*O++@=@=@==:==::=:=@=:=XX*oXX@&-------------XXo",
"$%@=====@=:=@X*o*O+@#XXXXXXXXXXXXXXXXXXXXooXX&XXXXXXXXXXXXXXX*o",
"$%===@=:=@@=-X*oOO@#XXXXXXXXXXXXXXXXXXXX*o.X*.ooooooooooooooooo",
":;----------XO*oXOoooooooooooooooooooooooo*X**ooooooooooooooooo",
"X#OOOO********.oXOoooooooooooooooooooooooo*XX*****************X",
"ooooooooooooooooXXO*.....................*XXXXXXXXXXXXXXXXXXXXX"
};
