/* XPM */
static char *_b407c82570040e4cea2b51d0f40c5e2SbBMoWaOaNTKZItX[] = {
/* columns rows colors chars-per-pixel */
"65 64 30 1 ",
"  c #008080",
". c gray22",
"X c #000070",
"o c #202020",
"O c #000098",
"+ c #000088",
"@ c #00007C",
"# c black",
"$ c #000064",
"% c #000058",
"& c #0000A4",
"* c #00004C",
"= c #0000B0",
"- c #0000BC",
"; c #2024FC",
": c #000040",
"> c #700000",
", c #706C00",
"< c #FCF400",
"1 c #D0D0D0",
"2 c #0000D4",
"3 c #0000FC",
"4 c #7C7C7C",
"5 c gray55",
"6 c #B4B4B4",
"7 c #989898",
"8 c #4040FC",
"9 c #2C2C2C",
"0 c gray33",
"q c white",
/* pixels */
" .XXXXXXXXXXXXXXXXXXXXXXXXXXX..XXXXXXXXXXXXX..XXXXXXXXXXXX.XXXXX.",
" oOOOOOOOOOOOOOOOOOOOOO+++@XX#oOOOOOOOO+@@@@#oOOOOOOOO@@$%#&&&&+#",
" oOOO@OXOO+X++X+++XXO@XXXX$%*#oOO++@OO+@@@@*#oO=&=&=====+X#&&@+@#",
" oO+X@+++XXO+O%++%@XX++XX$%%*#oO+OO@++X@XO$*#oO&==O=-&=O+X#OO&+*#",
" oO@O$+$+XXX+@@X%@$+%X$%%***%#oO+@@++X@X$*%*#oO=&O-=&O+@@$#@$XX*#",
" oO@XOOO%XXXO+++@@X$%XXX$$%*%#oOO@OOX$$$@%**#oO=O-;-O=O+$X#+@$%*#",
" oO++&&OOO+OOO++$@*X%XXXX$***#oOOO@@X$@@@$%*#oO&=O==OO&XX$#+X***#",
" oOO+O&&O+X%OO+@@X$$$%XX$%*%%#oOO@X@@@X@X%**#oO&=&O&&&OX$X#+%*%*#",
" oO+X+OO@+X+$$@@@%%X@*$$$%%**#oO+@@$@OOX$X*%#oO&-&&@@OO+$%#######",
" oO@@@OXXXOO$*%*$*@$X$%$$%***#oO@@$XX@@$%*%*#oO&=O&@@@+@%*#+&&&O#",
" o+X@O@@$+OO$$***$%X$%$XX$*%*#o+@X$$@@$X%*%*#oO&==O@@@@X%%#O&+&@#",
" o+@+XXO@%X*X****%%@::*XXX***#o+@X$$$@*$*$**#oO&==&O@@+X%%#+O@+%#",
" o+X+X%@@X%X%X%*$*$*:::*$$*%*#o+X@$$%%$%*%%*#oO&==O++X@$**#+O+$*#",
" o++XXX$%**%X%$*>>>>>>>>>>>>>>>>>>>>>>>>>>>>>>>>>>++@+XX*%#@@X%$#",
" o+X+%%$%X%$**%>,<<<<<<<<<<<<<<<<<<<<<<<<<<<<<<<<,>@O@$%**#X$%**#",
" o#############><,>>>>>>>>>>>>>>>>>>>>>>>>>>>>>>,<>+@@%*%*#######",
" O=&O&OOOOO&OOO><>1>1>11>11>>11>>>1>111>11>1>1>1><>X+XX%**#$-----",
" =&O+O=&O@OOXO+><>1>1>1>>1>1>1>1>1>1>1>>1>>111>1><>+-+X$%*#@--2=-",
" =&++@OO@X++XX+><>1>1>11>11>>11>>1>1>1>>11>111>1><>++XX$*%#O-232&",
" &O+&&++XXX+XXX><>1>1>1>>1>1>1>1>1>1>1>>1>>1>1>>><>+@X%*%%#O--2&-",
" O@+&=&XX++X+*X><>>1>>11>1>1>11>>>1>>1>>11>1>1>1><>$@X$%%*#&--&O&",
" OO@+&&X+XX%%$X><>>>>>>>>>>>>>>>>>>>>>>>>>>>>>>>><>$$X$***#=--&-O",
" &@X@+O+XX+%$X*><>>>>>>>>>>>>>>>>>>>>>>>>>>>>>>>><>$$$%***#&-&=&O",
" &O@+X+X++X$X%X><>>>>>>>>>>>>>>>>>>>>>>>>>>>>>>>><>X$$$*%*#&-&O+=",
" &&+@&++++XX$**><>>>>>444>4>44444>44>444444>44>>><>X$$*%**#O--&--",
" &O@X@&&%X+@@$*><>>>>>>>>>>>>>>>>>>>>>>>>>>>>>>>><>XX$%%%*#O-&-=&",
" O+X@O&&O+X@@$*><>>>444444>444>44>44444>444444>>><>+@$%*%%#O---&O",
" &+&++O&O%X$$$*><>>>>>>>>>>>>>>>>>>>>>>>>>>>>>>>><>+X$%%$*#@---&&",
" O@@OO+OO%$*%**><>>>444>4444444>444>4>4444>444>>><>+@X***%#@-&--O",
" O+@OOO+X$%*%::><>>>>>>>>>>>>>>>>>>>>>>>>>>>>>>>><>XXX****#@--=&&",
" +@+@OOX%%***::><>>>>>>>>>>>>>>>>>>>>>>>>>>>>>>>><>@$$*$**#@--&+O",
" +@@X@@X%%$XX%*><>>>>>444>44444444>4>44>444>44>>><>@$%XX**#@-&-&+",
" +@O+$XX$%$XX%*><>>>>>>>>>>>>>>>>>>>>>>>>>>>>>>>><>O+X%X%*#@-&-@@",
" +O+@@X%%*%$$%*><>>>44>44444>4444>44444444>444>>><>+++@%**#@--@+@",
" X++@XXXX*%:**%><>>>>>>>>>>>>>>>>>>>>>>>>>>>>>>>><>X++@X$*#$-&-++",
" X@@X$XXX*:::**><>>>4444>4444444444>4>4444>444>>><>X$@X$%*#$-&++@",
" X@%$X%XX*::::%><>>>>>>>>>>>>>>>>>>>>>>>>>>>>>>>><>+$$%%%*#$&&+@@",
" X+X%X%$*%:*::*><>>>444>44>44444>4>44>444444>4>>><>$**$***#$&+@+@",
" X@+@$X$***:::*><>>>>>>>>>>>>>>>>>>>>>>>>>>>>>>>><>$%**$**#$&+++@",
" X+@X%$X$**%**%><>>>4444>4>4444>444>44444>4444>>><>X$%%***#$+++X+",
" ##############><>>>>>>>>>>>>>>>>>>>>>>>>>>>>>>>><>X**%***#o#####",
" oooooo**$$@@@X><>>>>>>>>>>>>>>>>>>>>>>>>>>>>>>>><>$$%****#o$$$$o",
" oo+O&=========><>>>>>>>>>>>>>>>>>>>1515617161>>><>***%*$*#o$*X*o",
" ooO=====&O&=OO><,>>>>>>>>>>>>>>>>>>>>>>>>>>>>>>,<>########o***$o",
" ooO=&&O&&===+O>,<<<<<<<<<<<<<<<<<<<<<<<<<<<<<<<<,>oooooooooooooo",
" oo===&&==++O===>>>>>>>>>>>>>>>>>>>>>>>>>>>>>>>>>>==========&&&Oo",
" oo=O&O&&&+++=O@@OX+++X$**#o%&&O@#oo#########oo====&&OO&&&OO&=O@#",
" oo==&+@&&O++O==OOOX++X**%#o%O@$*#o@+O&OOO+@@oo=&&=&O--O&O+==++@#",
" oo==+O=&@O&&&XOO3O+%$%*%*#o$+$**#o+O&O+&+&$$#o==&&O==-XX+@X+$@X#",
" oo====O@=@&XXO@OO+X++X%%%#o$@%*%#oO&&O@X@$*%#o=&=&O&&OXXX+OXXX$#",
" oo=O=+OO=&+XXXOO$X+XX%*X*#oo#####o+O@@X$*%**#o==&22O+O+XXO@@+%*#",
" oo=&++=2=O@OXXOO@@X+$$%**#oooooooo###########o=&O22-=&O+&X$++%*#",
" oo=O=O282++O+@X@@@@X::*%*#o+++OOOOOOO+++@@$$oo=&O+--O+X+X@++X%*#",
" oo=&=&=2=OXOO%%%X@@$:::**#o+O+@O@+OO@+OXX$$*#o=OO&+@+@O@X@O@$%*#",
" oo=O=&&&@@@X$%%%%$$$*::**#o++@@@OOO&+@@@%$**#o==O++@@X@+++@$%**#",
" ooO=&&OXX+O++X%%%%$%*X***#oO@OO&+O+OOO+@X$*%#o=&O+XXX$X@+X%*%$*#",
" oo=O=&@@&XOO+$X*$XX*%***%#oOO@O+@X@+OO+@X*%%#o=&=&O@$**X$**::%*#",
" oo=O=O+@X%@OO+$%*XXX*%*%*#o+@O+@OX@+++@X$%**#o==OOXX+**%$**:::*#",
" oo&O@@@O%@%@++$$%XXX**$**#o+O@XXX@$XX@X$%***#o&+O+=+XX%$*$**::*#",
" oo&O$%@%OXX+*%**%*XX**%%*#o@+OX$X%X$X$$$*%%*#o&=OX+$$X*%***%%%*#",
" ooOO@@%@*%*%$%$%$********#o@+@X$%$$%*$**%%**#oOX+X@+X$%*%*%****#",
" ooO+X@+$$$$$$%%%%%%%%%%%%#o@X$$$$$$%%%%%%$%$ooO+X@X$$%%%%%%%%%%o",
" ..XXXXXXXXXXXXXXXXXXXXXXX..XXXXXXXXXXXXXXXXX..XXXXXXXXXXXXXXXXX9",
" 0000000000000000000000000000000000000000000000000000000000000000"
};
