/* XPM */
static char *_963ed2915a441f8f3b93df313edeb32yXWpmDHXFBf3saqI[] = {
/* columns rows colors chars-per-pixel */
"128 128 68 1 ",
"  c None",
". c black",
"X c #130F01",
"o c #211902",
"O c #372B03",
"+ c #3D2E03",
"@ c #6B5105",
"# c #675C3B",
"$ c #675C3C",
"% c #4F4C43",
"& c #484846",
"* c #4D4B44",
"= c #534F41",
"- c #555042",
"; c #694E41",
": c #6C5043",
"> c #A57D0A",
", c #AC7D12",
"< c #9C5A3B",
"1 c #9C5A3C",
"2 c #92792E",
"3 c #977D2F",
"4 c #BF7F29",
"5 c #BB7A2C",
"6 c #BB7C2C",
"7 c #BC9521",
"8 c #D4961D",
"9 c #DE9F1B",
"0 c #DFA01B",
"q c #FFBE0E",
"w c #E7A817",
"e c #E7A917",
"r c #EDAF15",
"t c #E0A11B",
"y c #E0A21B",
"u c #E8AA18",
"i c #EEB015",
"p c #F8BA11",
"a c #F8BB11",
"s c #C18227",
"d c #C58425",
"f c #C68525",
"g c #C68725",
"h c #C98625",
"j c #C78826",
"k c #CE8E22",
"l c #C98824",
"z c #C88825",
"x c #CA8B25",
"c c #CA8C24",
"v c #CA8C25",
"b c #C28228",
"n c #CF9022",
"m c #D29220",
"M c #D29320",
"N c #D09222",
"B c #D39420",
"V c #D39520",
"C c #D49520",
"Z c #D49620",
"A c #FFC00B",
"S c #FFC10F",
"D c #FFC20E",
"F c #FFC50F",
"G c #FFC010",
"H c #FFC410",
"J c #FFC412",
"K c #B4B4B4",
/* pixels */
"                                                                                                                                ",
"                                                                                                                                ",
"                                                                                                                                ",
"                                                                                                                                ",
"                                                                                                                                ",
"                                                                                                                                ",
"                                                                                                                                ",
"                                                                                                                                ",
"                                                                                                                                ",
"                                                                                                                                ",
"                                                                                                                                ",
"                                                                                                                                ",
"                                                                                                                                ",
"                                                                                                                                ",
"                                                                                                                                ",
"                                                                                                                                ",
"                                                                                                                                ",
"                                                                                                                                ",
"                                                                                                                                ",
"                                                                                                                                ",
"                                                                                                                                ",
"                                                                                                                                ",
"                                                                                                                                ",
"                                                                                                                                ",
"                                                                                                                                ",
"                                                                                                                                ",
"                                                                                                                                ",
"                                                                                                                                ",
"                                                                                                                                ",
"                                                                                                                                ",
"                                                                                                                                ",
"                                                                                                                                ",
"                                                                                                                                ",
"                                                                                                                                ",
"                                                                                                                                ",
"                                                                                                                                ",
"                                                                                                                                ",
"                                                                                                                                ",
"                                                        ..............                                                          ",
"                                                        ..............                                                          ",
"                                                    ..++DDDDiiZZyyDDDD@@++                                                      ",
"                                                    ..++DDDDiiZZyyDDDD@@++                                                      ",
"                                                ..++DDDDDDDDiiZZyyiiiiDDDD..++                                                  ",
"                                                ..++DDDDDDDDiiZZyyiiiiDDDD..++                                                  ",
"                                              ..DDZZiiDDDDDDrrmm99iiiiDDDDDD  ++                                                ",
"                                              ..DDZZiiDDDDDDrrmm99iiiiDDDDDD  ++                                                ",
"                                            ..iiiimm<<DDDDDDrrmm99rrrriiDDDDDDqq..                                              ",
"                                            ..iiiimm<<DDDDDDrrmm99rrrriiDDDDDDqq..                                              ",
"                                          ..DDuuuurrrrDDDDDDDDDDDDrrrrrrDDDDDDiiDD..                                            ",
"                                          ..DDuuuurrrrDDDDDDDDDDDDrrrrrrDDDDDDiiDD..                                            ",
"                                          ++DDeeeerrrrDDDDKKKKKKKKKKDDDDDDDDyyVVDD..                                            ",
"                                          ++DDeeeerrrrDDDDKKKKKKKKKKDDDDDDDDyyVVDD..                                            ",
"                                        ooDDDDeeeeDDDDDDKKDDDDDDDDDDKKDDDDDDZZZZDDDDXX                                          ",
"                                        ooDDDDeeeeDDDDDDKKDDDDDDDDDDKKDDDDDDZZZZDDDDXX                                          ",
"                                        ..DDiiuuppDDDDKKDDDD111111DDDDKKDDDDVVVVDDDDOO                                          ",
"                                        ..DDiiuuppDDDDKKDDDD111111DDDDKKDDDDVVVVDDDDOO                                          ",
"                                      ..DDDDiiiiDDDDKKDD11::333333::11DDKKDDmmmmDDDDJJ..                                        ",
"                                      ..DDDDiiiiDDDDKKDD11::333333::11DDKKDDmmmmDDDDJJ..                                        ",
"                                      ..yyyyrrrrDDKKDDDD11$$##==22$$11DDDDKKrrrrDDiiii..                                        ",
"                                      ..yyyyrrrrDDKKDDDD11$$##==22$$11DDDDKKrrrrDDiiii..                                        ",
"                                      ..yymmggVVDDKKDD1133$$$$==33**3311DDKKDDDDDDiiii..                                        ",
"                                      ..yymmggVVDDKKDD1133$$$$==33**3311DDKKDDDDDDiiii..                                        ",
"                                      ..99nnjjZZDDKKDD11$$$$####--&&##11DDKKDDDDDDrrrr..                                        ",
"                                      ..99nnjjZZDDKKDD11$$$$####--&&##11DDKKDDDDDDrrrr..                                        ",
"                                      >>99kkggVVDDKKDD1122$$2222==%%2211DDKKDDiiiirrrr..                                        ",
"                                      >>99kkggVVDDKKDD1122$$2222==%%2211DDKKDDiiiirrrr..                                        ",
"                                      ..DDeeggmmDDKKDDDD11$$3333##7711DDDDKKyyccyyDDDD..                                        ",
"                                      ..DDeeggmmDDKKDDDD11$$3333##7711DDDDKKyyccyyDDDD..                                        ",
"                                      ..DDDDrrrrDDDDKKDD11;;2222221111DDKKDDcc6600DDDD..                                        ",
"                                      ..DDDDrrrrDDDDKKDD11;;2222221111DDKKDDcc6600DDDD..                                        ",
"                                        ..DDDDDDppppDDKKDDDD111111DDDDKKDDDDzz5599DD..                                          ",
"                                        ..DDDDDDppppDDKKDDDD111111DDDDKKDDDDzz5599DD..                                          ",
"                                        ..DDDDDDppppDDDDKKDDDDDDAADDKKDDDDDDzz44rrDD..                                          ",
"                                        ..DDDDDDppppDDDDKKDDDDDDAADDKKDDDDDDzz44rrDD..                                          ",
"                                          ..DDDDuuppDDDDDDKKKKKKKKKKDDiiiiDD9999DD..                                            ",
"                                          ..DDDDuuppDDDDDDKKKKKKKKKKDDiiiiDD9999DD..                                            ",
"                                          ..DDDDeeppiiiiDDDDiiiiDDDDDDccZZDDDDDDDD..                                            ",
"                                          ..DDDDeeppiiiiDDDDiiiiDDDDDDccZZDDDDDDDD..                                            ",
"                                            ..JJDDDDrrrrDDDDiiiiDDDDZZssZZDDDDGG..                                              ",
"                                            ..JJDDDDrrrrDDDDiiiiDDDDZZssZZDDDDGG..                                              ",
"                                              ..DDDDDDDDDDDDrrrrDDDDbbzzmmDDDD..                                                ",
"                                              ..DDDDDDDDDDDDrrrrDDDDbbzzmmDDDD..                                                ",
"                                                ....DDDDDDDDrrrrDDDDmmhh88....                                                  ",
"                                                ....DDDDDDDDrrrrDDDDmmhh88....                                                  ",
"                                                    ....FFDDDDDDDDDDrr,,..                                                      ",
"                                                    ....FFDDDDDDDDDDrr,,..                                                      ",
"                                                        ..............                                                          ",
"                                                        ..............                                                          ",
"                                                                                                                                ",
"                                                                                                                                ",
"                                                                                                                                ",
"                                                                                                                                ",
"                                                                                                                                ",
"                                                                                                                                ",
"                                                                                                                                ",
"                                                                                                                                ",
"                                                                                                                                ",
"                                                                                                                                ",
"                                                                                                                                ",
"                                                                                                                                ",
"                                                                                                                                ",
"                                                                                                                                ",
"                                                                                                                                ",
"                                                                                                                                ",
"                                                                                                                                ",
"                                                                                                                                ",
"                                                                                                                                ",
"                                                                                                                                ",
"                                                                                                                                ",
"                                                                                                                                ",
"                                                                                                                                ",
"                                                                                                                                ",
"                                                                                                                                ",
"                                                                                                                                ",
"                                                                                                                                ",
"                                                                                                                                ",
"                                                                                                                                ",
"                                                                                                                                ",
"                                                                                                                                ",
"                                                                                                                                ",
"                                                                                                                                ",
"                                                                                                                                ",
"                                                                                                                                ",
"                                                                                                                                ",
"                                                                                                                                ",
"                                                                                                                                ",
"                                                                                                                                ",
"                                                                                                                                "
};
