/* XPM */
static char *_2aa7dd3ccae4180b797ea04fbaa4974nLZmu0oAoXMxz4pP[] = {
/* columns rows colors chars-per-pixel */
"62 62 43 1 ",
"  c gray22",
". c #007C7C",
"X c #007878",
"o c #20B0B0",
"O c #009898",
"+ c #008C8C",
"@ c #007474",
"# c #007070",
"$ c #004040",
"% c #20B4B4",
"& c #48C0C0",
"* c #74C8C8",
"= c #9CDCDC",
"- c #008484",
"; c #005858",
": c #B8E8E8",
"> c #00A4A4",
", c gray66",
"< c #D0D0D0",
"1 c #C0C0C0",
"2 c #7C7C7C",
"3 c #646464",
"4 c gray44",
"5 c gray55",
"6 c #989898",
"7 c #B4AC00",
"8 c #E4D800",
"9 c #FCF400",
"0 c #2C2C2C",
"q c gray33",
"w c #B4B4B4",
"e c #585400",
"r c #848400",
"t c #404000",
"y c #006C6C",
"u c #484848",
"i c #CCC400",
"p c #706C00",
"a c black",
"s c #D8F4F4",
"d c #9C9C00",
"f c #202020",
"g c white",
/* pixels */
" .XXXXXXXXXXXXXXXXXXXXXXXXXXXXXXXXXXXXXXXXXXXXXXXXXXXXXXXXXXXX",
" oOO+@#o+++++@#oO++++@#o+++++@#o+++++@#o+++++@#o+++++@#o++++++",
" oooo.$#ooooo.$#ooooo.$#ooooo.$#%%&&o.$#&&&oo.$#ooooo.$#oO++O+",
" ooooX.+oooooX.+oooooX.+oooooX.+%&*=oX.+&&oooX.+oooooX.+O+++O+",
" oooo-;;;;;;;;;;;;;;;;;;;;;;;;;;;;;;;;;;;;;;;;;;;;;;;;;;;;+OO+",
" ooooo.X#################################################;+OO+",
" O-:o=o+++++++++++++++++++++++++++++++++++++++++++++++++#;O-:+",
" .#-o:&>>>>>>>>>>>>>>>>>oooo%%%%%&%&%&%&%%%%ooo>>>>>OOO+#;.#-+",
" X.+o:*>>>>>>>>>>>>>>>ooooo%%%%%&%&%&%&%%%%ooo>>>>>OOOO+#;X.++",
" >>oo:*>>>>>>>>>>>>>ooooo%%%%&%&%&%&%&%%%%ooo>>>>>O>OOO+#;O>>+",
" oooo:*>>>>>>>>>>>ooooo%%%%%&%&%&%&%&%%%%ooo>o>>>O>OO+++#;O>>+",
" oooo:*>>>>>>>>oooooo%%%%&%&%&%&%&%&%%%%ooo>o>>>O>OO++++#;O>o+",
" oooo:*>>>>>>oooooo%%%%%&%&%&%&%&%&%%%%ooo>o>>>O>OOOO+++#;>>o+",
" oooo:*>>>>oooooo%%%%%%&%&%&%&%&%&%%%%ooo>o>>>O>OOOO++++#;>oo+",
" O-:o:*>>ooooooo%%%%%%&%&%&%&%&%&%%%%ooo>o>>>O>OOOO+++++#;O-:+",
" .#-o:*ooooooo%%%%%&%&%&%&%&%&%&%%%%ooooo>>>>>OOOO+++-++#;.#-+",
" X.+o:*ooooo%%%%%%&%&%&%&%&%&%&%%%%o%ooo>>>>>OOOO++++-++#;X.++",
" >>oo:*ooo%%%%%%%&%&%&%&%&%&%&%%%%o%ooo>>>>>O>OO+O++-+++#;>>o+",
" oooo:*o%%%%%%%%&%&%&%&%&%&%&%%%%o%ooo>>>>>O>OO+O+++-+++#;>oo+",
" oooo:*%%%%%%%%&%&%&%&%&%&%&%&%%o%ooo>>>>>O>OO+O++++++++#;>oo+",
" oooo:*%%%%%&%&%&%&%&%&%&%&%&%%o%ooo>o>>>O>OOOO++++-++++#;ooo+",
" oooo:*%%%%&%&%&%&%&%&%&%&%&%%o%ooo>o>>>>>OOOO++++-+++++#;ooo+",
" O-:o:*%%%&%&%&%&%&%&%&%&%&%%o%ooo>o>>>>>OOOO+O++-++++O+#;O-:+",
" .#-o:*%%&%&%&%&%&%&%&%&%&%%o%ooo>o>>>>>OOOO+O++-+++++++#;.#-+",
" X.+o:*%&%&%&%&%&%&%&%&%&%%o%ooo>o>>>>>OOOO+O++-+-++++O+#;X.++",
" >>oo:*&%&%&%&%&%&%&%&%&%%o%ooooo>>>>>O>OO+O++-+-++++O++#;>>>+",
" oooo:*%&%&%&%&,<<<<<<<11o%ooooo>>>>>O>OO+O++-+-++++++O+#;o>>+",
" oo%%:*&%&%&%&o23442256,1%ooooo>>>>>O>OOOO++++-+-++++O++#;>>O+",
" o%%%:*%&789&o.03 ,42q<6wooooo>>>>>O>OOOO+O++-+-++++O+O+#;>O-+",
" %%%%:*&Xer9%>.033344225woooo>o>>>O>OOOO+O++-+-+-++++OO+#;>+.+",
" O-:%:*-@tr8*+.033334422wooo>o>>>>>OOOO+O++-+-+-++++O+O+#;+X&+",
" .#-%:o-+tr8&+.033333442,oo>o>>>>>OOOO+O++-+-+-+-++O+OO+#;.yX+",
" X.+&:O-=tr8&+.0qurii944,o>o>>>>>OOOO+O++++-+-+-++++OOO+#;X.++",
" >>&**O-*tri&+.0u0paai34,>o>>>>>O>OO+O++++-+-+-++++O+OO+#;..O+",
" &**=%O-*tri&+.0 0paai33,o>>>>>O>OO+O+O++-+-+-+-++O+OOO+#;.+O+",
" **==oO-*tri&+.000e00i33,>>>>>O>OOOO+O++-+-+-+-++++OOOO+#;-+>+",
" *==:oO-&tr7&+.000eepr33,>>>>O>OOOO+O++-+-+-+-++++O+OOO+#;-+>+",
" =:::oO-&tr7&+.0000000336>>>O>OOOO+O++-+-+-+-++++O+OOOO+#;+Oo+",
" *%:soO-&trd&+.000000u336>>O>OOOO+O++++-+-+-+-++++OOOOO+#;+.=+",
" o.%:oO-+@tp%+.0  uuq3336>>>OOOO+O++++-+-+-+-++++O+OOOO+#;.#.+",
" oo*:%O-XX-%%+.0 f4q30535>>O>OO+O++++-+-+-+-++++O+OOOO>+#;X.++",
" **:=%O---%%%+.00 qqq3335>O>OO+O+O++-+-+-+-++++++OOOOOO+#;-O>+",
" s:==%O-+%%%o+.0000000003O>OOOO+O++-+-+-+-+-++++O+OOOO>+#;+O>+",
" :==*%OO%%%%o+..........O>OOOO+O++++-+-+-+-++++O+OOOO>O+#;O>o+",
" ==**%O%%%%oo++++++++++>>OOOO+O++++-+-+-+-++++O+OOOOOO>+#;O>o+",
" =*&&&o%%%ooooooo>o>>>>>OOOO+O++++-+-+-+-++++++O+OOOO>O+#;>>o+",
" O-:&:%%%ooooooo>o>>>>>OOOO+O++++-+-+-+-+-++++O+OOOOOO>+#;O-:+",
" .#-&:&%ooooooo>o>>>>>OOOO+O++++-+-+-+-+-++++O+OOOOOO>>+#;.#-+",
" X.+&:*ooooooo>o>o>>>O>OO+O+O++-+-+-+-+-++++++O+OOOO>O>+#;X.++",
" >>&&:*oooooo>o>o>>>O>OO+O+O++++-+-+-+-++++++O+OOOOOO>>+#;>>o+",
" &&&%:*ooooo>o>o>>>O>OOOO+O++++-+-+-+-+-++++O+OOOOOO>O>+#;>>o+",
" &&%%:*oooo>o>o>>>O>OOOO+O++++-+-+-+-+-++++++O+OOOOOO>>+#;>>o+",
" %%%%:*ooo>o>o>o>O>OOOO+O++++-+-+-+-+-++++++O+OOOOOO>>>+#;>>o+",
" %%%%:*oo>o>o>o>>>OOOO+O++++-+-+-+-+-++++++O+OOOOOO>O>>+#;>oo+",
" O-:%:*ooo>o>o>>>OOOO+O++++-+++-+-+-+-++++O+O+OOOOOO>>>+#;O-:+",
" .#-%:*oo>o>o>>>OOOO+O++++++++-+-+-+-++++++O+OOOOOO>O>>>X;.#-+",
" X.+o:******************&&&%%o>>>>o%&&&&&&&&&&&&%%%%%%%%.;X.++",
" >>oo:::::::::::::::::::====**&&&**================****&+.>>o+",
" ooooooooooooo>>>>OOOOOOOO+--.....-++OOOOOO>>oooooooooooooooo+",
" ooooO-:oooooO-:>OOOOO#%O+--.X#O..-+OO#%OOO>oO-:oooooO-:ooooo+",
" oooo.#-ooooo.#-OOOOO.$#+--..#$;.--+O.$#OO>>o.#-ooooo.#-ooooo+",
"uooooX.+oooooX.+OOOOOX.++--..##X--+OOX.+OO>ooX.+oooooX.+ooooo+"
};
