/* XPM */
static char *e2633026ddd74601fa47e5e3c801018fAtswYmKZ1ORWuiuo[] = {
/* columns rows colors chars-per-pixel */
"128 128 48 1 ",
"  c #7D929E",
". c #63747D",
"X c gray23",
"o c #4B4B4B",
"O c #232323",
"+ c #2F2F2F",
"@ c gray34",
"# c #676767",
"$ c gray45",
"% c gray50",
"& c black",
"* c #373700",
"= c #434300",
"- c #3B2F17",
"; c #4F4F00",
": c #6B6B00",
"> c #5F4323",
", c #8B5B33",
"< c #4B3B1B",
"1 c #007FCF",
"2 c blue",
"3 c #CB7F4F",
"4 c #A3673F",
"5 c #935F37",
"6 c #83532F",
"7 c #F3975F",
"8 c #FFA773",
"9 c #BF7B4B",
"0 c #FF9F63",
"q c #FFBB93",
"w c #EB8F5B",
"e c #DF8B57",
"r c #573F1F",
"t c #D38353",
"y c #774F2B",
"u c #AB6B43",
"i c #FFB383",
"p c #2B230F",
"a c #6F4B27",
"s c #B77347",
"d c #9F633B",
"f c #5B5B5B",
"g c #43331B",
"h c #9B9B9B",
"j c LightGray",
"k c #B7B7B7",
"l c gray12",
"z c white",
/* pixels */
"                                                                                                                                ",
" ...............................................................................................................................",
" ...............................................................................................................................",
" ...............................................................................................................................",
" ...............................................................................................................................",
" ...............................................................................................................................",
" ...............................................................................................................................",
" ...............................................................................................................................",
" ...............................................................................................................................",
" ...............................................................................................................................",
" ...............................................................................................................................",
" ...............................................................................................................................",
" ...............................................................................................................................",
" ...............................................................................................................................",
" ...............................................................................................................................",
" ...............................................................................................................................",
" ...............................................................................................................................",
" ...............................................................................................................................",
" ...............................................................................................................................",
" ...............................................................................................................................",
" ...............................................................................................................................",
" ...............................................................................................................................",
" ...............................................................................................................................",
" ...............................................................................................................................",
" ...............................................................................................................................",
" ...............................................................................................................................",
" ...............................................................................................................................",
" ...............................................................................................................................",
" ...............................................................................................................................",
" ...............................................................................................................................",
" ...............................................................................................................................",
" ...............................................................................................................................",
" ...............................................................................................................................",
" ..........................................................XXXXXXXX.............................................................",
" ........................................................XXooXOOXooXX...........................................................",
" .......................................................XXoX+OOOO+XoXX..........................................................",
" ......................................................XXoX+OOOOOO+XoXX.........................................................",
" ......................................................XXoX+OOOOOO+XoXX.........................................................",
" ......................................................@o@X+OOOOOO+X@o@.........................................................",
" ......................................................Xo@X+XooooX+X@oX.........................................................",
" ......................................................Xo@@@######@@@oX.........................................................",
" .....................................................Xo@##$%%%%%%$##@oX........................................................",
" .....................................................o@X&&&&&&&&&&&&X@o........................................................",
" .....................................................@X*=----------=*X@........................................................",
" ....................................................X+&=;*;::>>::;*;=&+X.......................................................",
" ...................................................XO&&,:<12-,,-21<:,&&OX......................................................",
" ...................................................&&&&34456788365443&&&&......................................................",
" ...................................................&&&&,90qq9qq9qqw9,&&&&......................................................",
" ....................................................&&&&4w8e,rr,e8w4&&&&.......................................................",
" ......................................................&&5t870tt078t5&&.........................................................",
" ........................................................yt89r,,r98ty...........................................................",
" ........................................................>9880qq0889>...........................................................",
" .......................................................&-uw8e44e8wu-&..........................................................",
" .......................................................&&-47iiii74-&&..........................................................",
" .....................................................44&&&-yyyyy6-&&&44,.......................................................",
" ...................................................4e34&&&&pr55rp&&&&assuu.....................................................",
" ................................................5e77e3d-&&fX&&&&Xf&&-atetsuu...................................................",
" ..............................................3ee0000e9d<&Xf&g<&fX&<auewww3uuu.................................................",
" .............................................e000000000tda<&<55<&<ad9tw77wwesu,,...............................................",
" ............................................e000077770we34aa5445333ww77t77we39su,y.............................................",
" ...........................................e00073weww0eee399deat7777700twweet99s,y.............................................",
" ...........................................0777w3ee9e7te3tee3w9977000009tt33ss99uy.............................................",
" ..........................................u0wwwwueste7tettee3w99eeeeew09tt3s4493s6.............................................",
" ..........................................u07933544ssseet3ststattts3teesss44,4s3s,6............................................",
" ..........................................3007uu56,49e777t,sdt99ts,t777e94y,y54su,6............................................",
" ..........................................t00ww,6>,4satttt,s5t99t4,ttttas4y,ra545y6............................................",
" ..........................................t0t333y>6>y<<<<y>u4sa9td>y<<<<y>>a<g556>6............................................",
" .........................................370td666g>66yusyuyu4sdd9dyuysuy666>pp>a>y6............................................",
" .........................................300w35a<rp6dysdy4yu4ud495y4ydsyd6><p<->aa6............................................",
" .........................................7000e5agap>dys,y5au49-d95a5y,syd><p--->y666...........................................",
" ........................................3333surrgrp>6r5y>6a449d,4,a6>y5r6>ppp-r<>a66...........................................",
" ........................................9w0w99r-r-pp>r5yrya44ud6,,ayry5r>pppppr--<a6...........................................",
" .......................................d9ww3e5rg-pppp-rrrrayda-ay5arrrr-ppgppr-->aaa...........................................",
" .......................................d9w9e9rg<pppp<ryy6>gr6>ra<<56a>r<<gppg->,u3u5aa.........................................",
" .......................................d9w9u6<ppppppppra6>pgr6r<p-<6>r<ggppggr,u3w345a.........................................",
" .......................................d9w8e6>>-p.p&&&&p-ggpggppppppp&&&&&ppgg63ww3,5,.........................................",
" .......................................d99w0e6><-p.&&&&&&&&&&hhhh&&&&&&&&&pppg6,4464,5.........................................",
" .......................................d99w00e>><<.&&&&&&&&&&jkh$&&&&&&&&&ppp-rtw8q045.........................................",
" ........................................99td66r->>.<g-p&&&&&&khh#&&&&&&p-rgppptqqqq80,.........................................",
" ........................................99d60qw6->gg<<<<<<<<<gpp<a>><>a65yggpp8qtq7qid.........................................",
" ........................................d96qqqqta><<<<r>aaaaa<ppaa>>rraaaaagpp8tqt700d.........................................",
" .........................................90qeeqq6>yaayy655555<pp6445uuuud,yr>pettq99e6.........................................",
" .........................................dqqee,e6>yaaayy65uuu<pp69eeeet33s5y><p4ttd46..........................................",
" ..........................................8888ew96yaaaaay66du<pp,9ewwwwttsd,>....446...........................................",
" ..........................................888tuuuuyyyyaaayy6,<pp69e7777we3s,>..................................................",
" ...........................................etuuuu,,,6yyaaaaya<ppa9e77777wts,>..................................................",
" ............................................etuu,,,,,6yyaaaa><pp<49ttttttes,>..................................................",
" ................................................ddddd,6yaaa>r-p-----<6yyy555>..................................................",
" ................................................dddddd,6y>><<-p-r6d9t99446->>..................................................",
" ................................................rr>rrr<<<<<r-ppr69teee9ss46->..................................................",
" .................................................,,,,,,,6>>rgpprd9tw779sssd6...................................................",
" .................................................55555dd6aa>>-pyute7709ssss5...................................................",
" .................................................54555d96aa>>g-69t77003s334,...................................................",
" .................................................54sssst6yy>>r<d3t7000t9993,...................................................",
" .................................................54s333e6yy>>ra39e7008w3333s...................................................",
" .................................................549333e6yy>>rddt70008wett34...................................................",
" .................................................549333e6yy>>rase700087wet3,...................................................",
" ..................................................49e33e6yy>>ra9e0088807wetd...................................................",
" ..................................................49e33t6yy>>r53e00088007ew3,..................................................",
" ..................................................43ee396yy>>r43w00088007ew39..................................................",
" ..................................................4tees56yy>>a93e08888007ew39..................................................",
" ..................................................4we9956yy>ra333e7888007wt34..................................................",
" .................................................54twws5yyy>gadt33ew0880w3946..................................................",
" .................................................6tt99w46y>>gr,t9uss9999994,r..................................................",
" ..................................................dt99996y>rg-<d9d,dussss4,ar..................................................",
" ..................................................6dssss>>>rg-pyda6,544456a<g..................................................",
" .................................................64ss4s6>>arg-p<y>>>>><<<<g--..................................................",
" .................................................64d66a>>a6<<<-p<--<r<gpppp-g..................................................",
" ..................................................<<r>a>6,g-<-p&p---<rplllpg...................................................",
" ..................................................gr<--<<<g--pp&&gpp-gpllp-O...................................................",
" ...................................................grrr---pppp&&&&pp--ppp&&O...................................................",
" ....................................................&&&&&&&&&&&&&&&&&&&&&&O....................................................",
" ....................................................&O&&&&&&&&&&&O&&&&&&&&O....................................................",
" ....................................................&OX&&&&&&&&&&&&&&&&&&O.....................................................",
" .....................................................&OX&&&&O&&&&&&&&&&&&O.....................................................",
" .....................................................&O&&&&&&&&&.O&&&&&&&&.....................................................",
" .....................................................&O+X&&&&O&&.&O&&&&&&O&....................................................",
" .....................................................&&&&&&&&O&&&&&&&&&&OO&....................................................",
" .....................................................&O++&&&OO&.&&&&&&&&O+&....................................................",
" ......................................................&&+&&&&&&.&&&&++O&O+O....................................................",
" ......................................................&OO&&&&O&.&&O&&&&&O+O....................................................",
" ......................................................OO&&O&&&&.&&O&&&&&+O&....................................................",
" ......................................................&&&&&&&&&&.&Ol&&&lO&.....................................................",
" .....................................................&&OO+X+&&&&..&OOOOO&......................................................",
" .....................................................&OO++&&&&&&...&&&&&.......................................................",
" .....................................................OOOO+XX+&&&&..............................................................",
" .....................................................&OOO+XXX&&&&..............................................................",
" .....................................................&&&&&&&&&&&&.............................................................."
};
