/* XPM */
static char *a0a9d699d75144759b734e96215118afMFfxqlv4QV1Lldz9[] = {
/* columns rows colors chars-per-pixel */
"128 128 44 1 ",
"  c #7D929E",
". c #63747D",
"X c gray23",
"o c #4B4B4B",
"O c #232323",
"+ c gray34",
"@ c #2F2F2F",
"# c gray45",
"$ c #676767",
"% c gray50",
"& c black",
"* c #2B230F",
"= c #3B2F17",
"- c #4B3B1B",
"; c #83532F",
": c #9F633B",
"> c #D38353",
", c #F3975F",
"< c #FFB383",
"1 c #A3673F",
"2 c #8B5B33",
"3 c #B77347",
"4 c #BF7B4B",
"5 c #FFA773",
"6 c #FFC7A7",
"7 c #FFBB93",
"8 c #DF8B57",
"9 c #CB7F4F",
"0 c #6F4B27",
"q c #935F37",
"w c #EB8F5B",
"e c #AB6B43",
"r c #FF9F63",
"t c #774F2B",
"y c #5F4323",
"u c #BF0000",
"i c #C3C3C3",
"p c #770000",
"a c #8F0000",
"s c #9B0000",
"d c #43331B",
"f c #573F1F",
"g c #9B9B9B",
"h c white",
/* pixels */
" ...............................................................................................................................",
" ...............................................................................................................................",
" ...............................................................................................................................",
" ...............................................................................................................................",
" ...............................................................................................................................",
" ...............................................................................................................................",
" ...............................................................................................................................",
" ...............................................................................................................................",
" ...............................................................................................................................",
" ...............................................................................................................................",
" ...............................................................................................................................",
" ...............................................................................................................................",
" ...............................................................................................................................",
" ...............................................................................................................................",
" ...............................................................................................................................",
" ...............................................................................................................................",
" ...............................................................................................................................",
" ...............................................................................................................................",
" ...............................................................................................................................",
" ...............................................................................................................................",
" ...............................................................................................................................",
" ...............................................................................................................................",
" ...............................................................................................................................",
" ...............................................................................................................................",
" ...............................................................................................................................",
" ...............................................................................................................................",
" ...............................................................................................................................",
" ...............................................................................................................................",
" ...............................................................................................................................",
" ...............................................................................................................................",
" ...............................................................................................................................",
" ...............................................................................................................................",
" ...............................................................................................................................",
" ...............................................................................................................................",
" ...............................................................................................................................",
" ......................................................................XXXXXXXXXX...............................................",
" ....................................................................XXooXXOXoo++XX.............................................",
" ...................................................................XXX+XXOOOO@Xo+XX............................................",
" ..................................................................XXXo+XXOOOOO@Xo+X............................................",
" ..................................................................XXXo+XXOOOOO@Xo+X............................................",
" .................................................................X#@Xo+XXOOOOOOXo+oX...........................................",
" .................................................................XO@Xoo+X@@@@@@@oo+X...........................................",
" .................................................................XXXXXoo+++$$$$$$+++X..........................................",
" .................................................................XXXoo++$$#%%%%%%#$$+X.........................................",
" .................................................................o++++X&&&*********&XX.........................................",
" ................................................................X$$+X&&=-;:>,<1***&&&..........................................",
" ...............................................................XX++X&&2234,,5667890&...........................................",
" ...............................................................&&&&&&=q998ww<<<79990...........................................",
" ...............................................................&&&&&&=-;e88>r,5wt21;...........................................",
" ................................................................&&&&&yt23884r,<111..........u..................................",
" ..................................................................&&&;2t23848wr%ipaa.u.s.......................................",
" ........................................................9339999410&&&yee:1q:3482pp.a...........................................",
" ..................................................888w,,w4e3999910d&&&;ee4ttqe4w40a.a.s..u.....................................",
" ................................................9,8,88>,<w4119w910y&&&&&92t000:110.............................................",
" ..............................................9w,,,88>3>,<,4119>420=&&&X&24:ff000....s.........................................",
" ............................................>>,,,8>>>3344>,>1:489eq0=&&+X&4:=&........u........................................",
" ...........................................>>;;;;3e3>32224>4:2ew8e:ty=&&+&:=X&.................................................",
" ...........................................w<<55;;ee31t-t:4etteww992tyy&&&:&&=qq...............................................",
" ..........................................55<<555;2231td;;0tyteww9w1tyyy&&=&=;;3q..............................................",
" ..........................................95<>3355tt1qddyyydyyewwww93tyyyyy=t2219q.............................................",
" ..........................................98<<3tddtqffddyyfdyyeww:1993tyy2y;t22138q............................................",
" .........................................5<9>rrq*dy1f=f;;f*dfy;4w::e89:;t2y;;20;q98q...........................................",
" .........................................9<>.33..yyyyyyddd*dy;yq9:99:>4:;;y=q10;qq3q...........................................",
" .........................................19>........334:2yfdt120e2w>9:3:;y;;q1001;qeq..........................................",
" .........................................91r........33443:2tt1>2tq1199e:;ytq13001q2eq..........................................",
" ..........................................5.........334933e::;9>e2q1;;qtt=2131fyq1;2q..........................................",
" .....................................................3e9894e3338weee:tttdy111t-yy0;;qq.........................................",
" .....................................................3e38,8843::w;3q0;2t--y00d*dyy0010.........................................",
" .....................................................331>8,8493qq;::y02:=ydyy-**dy--q0.........................................",
" ......................................................31:>>3:3930;19yd0t:tyd-***-0;489:;.......................................",
" ......................................................;eqq43t:391001yddy=:tf=****2;2993:0......................................",
" ......................................................t;q;;2dt:33q-dd**=-y:y.f***2-;;3390......................................",
" .......................................................y-fftd*t::td-*****=yf..*****299w90......................................",
" ........................................................&&&&&&&&&&&&&&&+g+d=..=****tt2990......................................",
" .......................................................&&&&&&&&&&&&&&&&X++&....=***2e9ww0......................................",
" .......................................................&&&&&&********&&XXX&.....-**tt::;.......................................",
" .......................................................009998ww94q;tt;0y&&&......--fttt........................................",
" ......................................................q9999998,,w99:2;0f&&f....................................................",
" .....................................................49494>8ww888884:;0f&&yf...................................................",
" ....................................................e943>rrrrrr,,8>4q0yf&&;f...................................................",
" ....................................................4w>>rrrrrrr,w8>eq0yd&&;f...................................................",
" ...................................................9ww,,rrrrrrrww841;0f=**ff...................................................",
" ...................................................3w,w,,,,,,,www4e:0yd***-ff..................................................",
" ....................................................33wwwwwwww9944:q0d**t*-yf..................................................",
" ......................................................33eeeeeeqq2;tfd**-t**-f..................................................",
" ......................................................tttttttyyyyff***-02=*df..................................................",
" ......................................................qqqqqq00yff====ft02y=*f..................................................",
" ......................................................r5r,,4eqq;0f==ft202y==*..................................................",
" .....................................................8555r,ww4eqt0ftt12-ty.....................................................",
" .....................................................857rr,www4eqtq1:12-yy.....................................................",
" .....................................................855<r,wwww4eqe1:12--y.....................................................",
" .....................................................8r5<<5,,ww8>933:10--y.....................................................",
" .....................................................9r<<<r5rr88>99431y-fy.....................................................",
" .....................................................35<,,,w88888>943;yy00y....................................................",
" .....................................................35<,r5<<w888>431fyy00y....................................................",
" .....................................................355<<5rr55w8>4:2yy0t0y....................................................",
" .....................................................35,,,,,,,w58>42tyy0t0y....................................................",
" ....................................................4888333339>ww342ty0;t0yy...................................................",
" ...................................................48,,,w,8411e34312yy;;t0yy...................................................",
" ..................................................4,r555,,w893q13410y02;t0yy...................................................",
" ..................................................9,555r,,w8883q13tf-21;t0yy...................................................",
" .................................................9rr55ww444>399:;2fd011;tyfy...................................................",
" .................................................9,8w55ww4ee221:;fd01e1;ty-y...................................................",
" .................................................9,8994444441t0tt==d-te0yy-y...................................................",
" .................................................99d;eeqqe331;ydd=-dd-00yf-y...................................................",
" .................................................4ydddyq;t:tt:;dy-4>q2yyf-y....................................................",
" .................................................y@OOOOO=-t=*t:td-2200yf0fy....................................................",
" ................................................O@o$o@OOOO=*=ttddtttyyf-ty.....................................................",
" ................................................O@o$X@OOO&&=y2-dd;;;fy-0ty.....................................................",
" ...............................................O@@+oX@OOO&&&yd*&&&yyffyty......................................................",
" ...............................................O@o+XX@OO&&&&d*&&&&&&yy;ty......................................................",
" ..............................................O@@+oX@@OO&&&O&&&&&&&&&&yy.......................................................",
" ..............................................OXX+X@@@O&&&@&&&&&&&&&&&&y.......................................................",
" .............................................OXo+oX@OOO&&@&&&&&&&&&&&&&........................................................",
" ............................................OXoo++XXOOO@X&&&&&&&&&&&&&.........................................................",
" ...........................................OOXoo++X@@@@Ooo&&&&&&&&&&&..........................................................",
" ...........................................OOOOOOOO@@@O@OO@+O&&&&&&&&..........................................................",
" ...........................................OOOOO&O@@@OO@OOOOX+&&&&&&...........................................................",
" ...........................................XXXXX&OXXXXXXXX@OO@+O&&&&...........................................................",
" ...........................................XXXXXX&OXXXXXXXXXX@OoO&&&...........................................................",
" ............................................XXXXX&OXXXXXXXXXXXX@O&&&...........................................................",
" ..............................................XXXX&OXXXXXXXXXXX@O&&&&..........................................................",
" ................................................XX&OXXXXXXXXXXXO&&&&&&&........................................................",
" ....................................................XXXXXXXXXXX&&&&&&&&&&......................................................",
" ............................................................&&&&&&&&&&&&&&.....................................................",
" ............................................................&&&&&&&&&&&&&&.....................................................",
" ............................................................&&&&&&&&&&&&&&.....................................................",
"                                                                                                                                "
};
