/* XPM */
static char *d8b052436a9e4065c04a6a2dbecd583ctxugaXGf0mbauXzQ[] = {
/* columns rows colors chars-per-pixel */
"128 128 50 1 ",
"  c #7D929E",
". c #63747D",
"X c gray23",
"o c #4B4B4B",
"O c #2F2F2F",
"+ c #232323",
"@ c gray34",
"# c #9B0000",
"$ c gray50",
"% c #676767",
"& c #A70000",
"* c black",
"= c gray45",
"- c #830000",
"; c #D70000",
": c #EF7F1F",
"> c #F3B323",
", c #CF6300",
"< c #8F0000",
"1 c #CB0000",
"2 c #6F0000",
"3 c #CB7F4F",
"4 c #DF8B57",
"5 c #F3975F",
"6 c #D38353",
"7 c #EB8F5B",
"8 c #FF9F63",
"9 c #BF7B4B",
"0 c #935F37",
"q c #AB6B43",
"w c #FFA773",
"e c #FFB383",
"r c #B77347",
"t c #8B5B33",
"y c #A3673F",
"u c #83532F",
"i c #573F1F",
"p c #6F4B27",
"a c #4B3B1B",
"s c #B75700",
"d c #774F2B",
"f c #5F4323",
"g c #43331B",
"h c #9F633B",
"j c #EF0000",
"k c #3B2F17",
"l c #770000",
"z c #2B230F",
"x c gray12",
"c c white",
/* pixels */
" ...............................................................................................................................",
" ...............................................................................................................................",
" ...............................................................................................................................",
" ...............................................................................................................................",
" ...............................................................................................................................",
" ...............................................................................................................................",
" ...............................................................................................................................",
" ...............................................................................................................................",
" ...............................................................................................................................",
" ...............................................................................................................................",
" ...............................................................................................................................",
" ...............................................................................................................................",
" ...............................................................................................................................",
" ...............................................................................................................................",
" ...............................................................................................................................",
" ...............................................................................................................................",
" ...............................................................................................................................",
" ...............................................................................................................................",
" ...............................................................................................................................",
" ...............................................................................................................................",
" ...............................................................................................................................",
" ...............................................................................................................................",
" ...............................................................................................................................",
" ...............................................................................................................................",
" ...............................................................................................................................",
" ...............................................................................................................................",
" ...............................................................................................................................",
" ...............................................................................................................................",
" ...............................................................................................................................",
" ...............................................................................................................................",
" ...............................................................................................................................",
" ...............................................................................................................................",
" ...............................................................................................................................",
" ...............................................................................................................................",
" ...............................................................................................................................",
" ...............................................................................................................................",
" ...............................................................................................................................",
" ...............................................................................................................................",
" .....................................................................XXXooo....................................................",
" ...................................................................XXOOOXoooo..................................................",
" .................................................................XXXOO+OOOXo@@.........................................#.......",
" ................................................................XXoXO+++++Ooo@o@oo.............................................",
" ................................................................Xo@XO+++++O@@$$$%o...........................#..&..............",
" ...............................................................Xo@@@XO+++@@$$XX++XX............................................",
" ...............................................................XXo@@XOO@@$$X*****+X........................&...................",
" ...............................................................XXo@@@@@=$X********X.....................#......-.........#.....",
" ...............................................................XXXo@@==o**********..................................-#.........",
" ...............................................................XXXo@%=@**********X..........................;.......--.........",
" ...............................................................XXXo@%o+**********+...................&&..#.....................",
" ...............................................................XXo@@o***********+.........:>>>>>::,.............;..............",
" ...............................................................XXo@oO***********........:>>>>>>>>>:,..#..;&.......#............",
" ...............................................................Xo@@X**********++.......:>>>>>>>>>>::,....&<............1-......",
" ...............................................................Xo@%X***********........:>>>>>>>>>>::,##......#..2#.....--......",
" ................................................................o@%+*********+.....344555467::7775558844990...#.12.............",
" ................................................................o@%+*******++....q934454466666477758weew5690...................",
" ................................................................o@%********.....rq9934443666667555558ww85449...................",
" ................................................................o@%++**++.....r9tq996666699667555554558544470.....#............",
" ................................................................Xo@%+++......99yuq9666663r96455555463457365570.................",
" .................................................................XXXX.......99yiur666643rr947777774993473945570................",
" ...........................................................................99ypau666443rs222s4444439q9rrt9445560...............",
" ..........................................................................99ydfgu363yhu2<<j;<s66633rq0trf09945560..............",
" .........................................................................y99dpikuqdk****2l&&l20y99rytuuhfpqq945469.............",
" .........................................................................hyypigk**************kd0yytudfdaap0q645560............",
" .........................................................................hhdfak***kddhyhdf++****kfdppfikkkau0q65554q...........",
" .........................................................................hudfh99444y46669900d++***kffagkzzkfuuq3553q...........",
" .........................................................................huy44ww64y45www554699tdg**igkgzffkkfuuddhhh0..........",
" .........................................................................hy4ww866y3y65www555499ytg**kkkf..fkkfidqqqh0..........",
" .........................................................................y4556hhh886y999yy000y9y0dg**kf....fkkki0qqht0.........",
" .........................................................................396hhr7758www888549ruut00ug**......ffkft00hu0.........",
" ........................................................................y9yhr7758wwwwwww885749yff0uua*..#..#..kft000d0.........",
" ........................................................................yyhr745888477788888549ytfgadfal.....#.kfdttudu.........",
" ........................................................................yhy6777777ry996755556rqtdgzaffl<.<l...kfduuudu.........",
" ........................................................................0yr6446333ruy96675579rq0tpgzafa<ll....kkffpppp.........",
" .........................................................................y94463339ydur66477769rq0dizzfa<....l..apptt0r.........",
" .........................................................................y6444633yuugu367754469ryuiazzall.<.....trrrr6.........",
" .........................................................................94557769qddgzy37w88779yytigkzf<<..#....66ww56.........",
" .........................................................................65557769ydfgzzy97ww886qttigkzfl....<...6hww56.........",
" .........................................................................yww8556r0dfgzzz79964889tdigz..<.l......y.ww56.........",
" .........................................................................h9ww869q0dakzkd9y99qq96hdigz........#....ww6h.........",
" .........................................................................hh9549qydfgkzd588766hdttdigz...........ww66h..........",
" .........................................................................88466qy0dfgkd5ee88856quaaagz....<......uuu0...........",
" ........................................................................dddq9qdffffkOOOXo@h546qhaakkk..........................",
" .......................................................................399hhhhddfXXXOOXo@XOkrhhdigkkk..........................",
" ......................................................................35886hdiifXXXXXXo@XO+xkuuiigkg...........................",
" .....................................................................35888690iiXXXXXXXXXO+x**kpfgkg............................",
" ....................................................................358886990dkXXXXXXXXX+x***kfgkk.............................",
" ...................................................................3655569990dkXXXXXXXXXx*****ikg..............................",
" ..................................................................h60tty99yyddkXXXXXXXXOx*****gk...............................",
" ..................................................................htgzzgihy0dikXXXXXXOxxx****k.................................",
" .................................................................@@@@@oOzzddiikkXXXOxxOXOx***..................................",
" ...............................................................@@@@@@oXOx*ziikkkXOxxOXXXXx***..................................",
" ............................................................XXXo@@@@oXXOx**zkzzgkxOXXXXXXXx**..................................",
" ...........................................................XXXXXo@ooXXOOx***zzggkOXXXXXXXXx**..................................",
" ..........................................................XXXXXXXXoXXO++****ggii..OXXXXXXXX**..................................",
" ..........................................................XXXXXXXXoOX+x****+ii....OXXXXXXXXx*..................................",
" ..........................................................XXXXXXXXXxX+*****+.......OXXXXXXOx*..................................",
" ..........................................................XXXXXXXXOxO+****+........OXXXXXOOx*..................................",
" ..........................................................XXXXXXOOO*++***+..........OOOOOOOx*..................................",
" ..........................................................XXXOOOOOO**+**+............OOOOOOx*..................................",
" ............................................................OOOXXXX+****..............OOOOOxx..................................",
" ............................................................XXXXXXXX****...............OOOOx...................................",
" ............................................................XXXXXXXX+***.......................................................",
" ............................................................XXXXXXXXX***.......................................................",
" ............................................................OXXXXXXXX+**.......................................................",
" .............................................................OXXXXXXXO**.......................................................",
" ..............................................................OXXXXOOO**.......................................................",
" ...............................................................OOOOOOO**.......................................................",
" ................................................................OOOOOOx........................................................",
" .................................................................OOOOO.........................................................",
" ...............................................................................................................................",
" ...............................................................................................................................",
" ...............................................................................................................................",
" ...............................................................................................................................",
" ...............................................................................................................................",
" ...............................................................................................................................",
" ...............................................................................................................................",
" ...............................................................................................................................",
" ...............................................................................................................................",
" ...............................................................................................................................",
" ...............................................................................................................................",
" ...............................................................................................................................",
" ...............................................................................................................................",
" ...............................................................................................................................",
" ...............................................................................................................................",
" ...............................................................................................................................",
" ...............................................................................................................................",
" ...............................................................................................................................",
"                                                                                                                                "
};
