/* XPM */
static char *f625afdaccff4d03b2ffccbe733d64e6YQQV8g0AE36LJMjn[] = {
/* columns rows colors chars-per-pixel */
"128 128 40 1 ",
"  c #63747D",
". c gray23",
"X c #4B4B4B",
"o c #BF0000",
"O c #9B0000",
"+ c #D70000",
"@ c #2F2F2F",
"# c #8F0000",
"$ c #232323",
"% c gray34",
"& c gray50",
"* c #676767",
"= c black",
"- c gray45",
"; c #830000",
": c #D38353",
"> c #9F633B",
", c #8B5B33",
"< c #5F4323",
"1 c #774F2B",
"2 c #573F1F",
"3 c #4B3B1B",
"4 c #43331B",
"5 c #FF9F63",
"6 c #EB8F5B",
"7 c #2B230F",
"8 c #CB7F4F",
"9 c #DF8B57",
"0 c #F3975F",
"q c #BF7B4B",
"w c #A3673F",
"e c #935F37",
"r c #B77347",
"t c #AB6B43",
"y c #3B2F17",
"u c gray12",
"i c #83532F",
"p c #6F4B27",
"a c #7D929E",
"s c white",
/* pixels */
"                                                                                                                                ",
"                                                                                                                                ",
"                                                                                                                                ",
"                                                                                                                                ",
"                                                                                                                                ",
"                                                                                                                                ",
"                                                                                                                                ",
"                                                                                                                                ",
"                                                                                                                                ",
"                                                                                                                                ",
"                                                                                                                                ",
"                                                                                                                                ",
"                                                                                                                                ",
"                                                                                                                                ",
"                                                                                                                                ",
"                                                                                                                                ",
"                                                                                                                                ",
"                                                                                                                                ",
"                                                                                                                                ",
"                                                                                                                                ",
"                                                                                                                                ",
"                                                                                                                                ",
"                                                                                                                                ",
"                                                                                                                                ",
"                                                                                                                                ",
"                                                                                                                                ",
"                                                                                                                                ",
"                                                                                                                                ",
"                                                                                                                                ",
"                                                                                                                                ",
"                                                                                                                                ",
"                                                                                                                                ",
"                                                                                                                                ",
"                                                                                                                                ",
"                                                                                                                                ",
"                                                                                                                                ",
"                                                                                                                                ",
"                                                                                                                                ",
"                                                                                                                                ",
"                                                                                                                                ",
"                                                                                                                                ",
"                                                                                                                                ",
"                                                                                                                                ",
"                                                                                                                                ",
"                                                                                                                                ",
"                                                                                                                                ",
"                                                                                                                                ",
"                                                                                                                                ",
"                                                                                                                                ",
"                                                                                                                                ",
"                                                                                                                                ",
"                                                                                                                                ",
"                                                                                                                                ",
"                                                                                                                                ",
"                                                                                                                                ",
"                                                                                                                                ",
"                                                                                                                                ",
"                                                                                                                                ",
"                                                                                                                                ",
"                                                                                                                                ",
"                                                                                                                                ",
"                                                                                                                                ",
"                                                                                                                                ",
"                                                                                                                                ",
"                                                                                                                                ",
"                                                                                                                                ",
"                                                                                                                                ",
"                                                              ...XXX                                     o     O          ++    ",
"                                                            ..@@@.XXXX                                                    +#    ",
"                                                          ...@@$@@@.X%%                                                         ",
"                                                         ..X.@$$$$$@XX%X%XX                                         O           ",
"                                                         .X%.@$$$$$@%%&&&*X                                o                    ",
"                                                        .X%%%.@$$$%%&&..$$..                                                    ",
"                                                        ..X%%.@@%%&&.=====$.                             O                      ",
"                                                        ..X%%%%%-&.========.                          o          o    O  O      ",
"                                                        ...X%%--X==========                                   O                 ",
"                                                        ...X%*-%==========.                                                     ",
"                                                        ...X%*X$==========$                                     +  +            ",
"                                                        ..X%%X===========$                              ;               +  O    ",
"                                                        ..X%X@===========                                                       ",
"                                                        .X%%.==========$$                                  O  O    O  o         ",
"                                                        .X%*.===========             ::::>>,,,>><                               ",
"                                                         X%*$=========$            :>1234441>5566:        +                     ",
"                                                         X%*$=======$$           :>112337716556686:>999988   ;   +;     ;;      ",
"                                                         X%*========           :81221>9008>>5556986:<:6698qq     ;;     O;      ",
"                                                         X%*$$==$$           ::weeeq9000009>r5556988<<:66:8888                  ",
"                                                         .X%*$$$            :e1eq559:q>q:868wwr55698,=<:::8888q1   O            ",
"                                                          ....             :1eq5559qq>1>q66668wr56::>2=<qq888qqt1               ",
"                                                                           81e5559q>>1y>6666668wr:::>1==qq88qqtt,1    O         ",
"                                                                           81tXXXXXXXyy>55006668er:8r,==<ttttttt>,1             ",
"                                                                           8t....XXXX...>5555666t>:qr,===tttttttt>,1            ",
"                                                                          99......%.@@@@@>555566r>8r,,===ewwt>,ttw>,1           ",
"                                                                         955.......%.@uuu@::::::r>qr,,===eww>,itttw>1           ",
"                                                                        9555.........@====,wqqqqqirw11===eee,p<i>ttw>,          ",
"                                                                       r5555.........@====1,rrrrwi>e12===111124<>ttt>,1         ",
"                                                                  1w85:wtr99.......@$$====11,wwwpi>i17==411p444<,>>>e,11        ",
"                                                                1ww8555:wwtr...@$$$$@.$===11eeep21i1y7==3444477<1,>>e,111       ",
"                                                         @@X%%%X@@21w559:rrrt,$$@@.....===1111p241p477=77777777y<1,>>e,11       ",
"                                                       $$$@@X%X.@@2219998rttt,@@.......===1pp24y<2477=777774247y3<i,>e,111      ",
"                                                      @@..X%.@$$$$$$2w:qrrttt,1........$==<<4yy34477y=7yyyyy33<73232>e,111      ",
"                                                      ......%.@$$$$$21rrtttt,11........@==33   37733O ;y3<<    <7332>e,1111     ",
"                                                      .......X.$======>>ee,,112y.....@@@==     333 OO;OO; O     1772,,,1111     ",
"                                                      .........@======1eee1112y7..@@@@@@==          OO OOO       172,,,1111     ",
"                                                      .........@======2111123y77@@@@@@@@==           ;OO OO       12ee,1111     ",
"                                                      .....@$$$$$=====222yyyy7777@@@@@@@==            ; O          1ee,1111     ",
"                                                        $$$$@@@@@=====444477742222@@@@@@=            ; O  ;         eeei1111    ",
"                                                        @@@@.....=====44444422ee>12@@@@@               ;  ;         eeei1111    ",
"                                                        @........$==        e5::r122@@@                             eeeiii11    ",
"                                                        @.........==        e5::r122                                eeeiii11    ",
"                                                        @@.....@@@==          wrp222                                ppppyy      ",
"                                                        @@@@@@@@@@==          wwwp                      ;           ppppyy      ",
"                                                         @@@@@@@@@==          9q,,,                                 88>>11      ",
"                                                          @@@@@@@@==          9q,,rr                                88>>11      ",
"                                                           @@@@@@@=           8qw2p,                                008eii      ",
"                                                            @@@@@=            8qipp,                                008eii      ",
"                                                             @@@@              rriww                              0088eee       ",
"                                                                                rrww                              00wwii        ",
"                                                                                                                                ",
"                                                                                                                                ",
"                                                                                                                                ",
"                                                                                                                                ",
"                                                                                                                                ",
"                                                                                                                                ",
"                                                                                                                                ",
"                                                                                                                                ",
"                                                                                                                                ",
"                                                                                                                                ",
"aaaaaaaaaaaaaaaaaaaaaaaaaaaaaaaaaaaaaaaaaaaaaaaaaaaaaaaaaaaaaaaaaaaaaaaaaaaaaaaaaaaaaaaaaaaaaaaaaaaaaaaaaaaaaaaaaaaaaaaaaaaaaaaa"
};
