/* XPM */
static char *_28149a719d04036f1b29713448fe670OW5N8IGHbjp9m7eB[] = {
/* columns rows colors chars-per-pixel */
"128 128 52 1 ",
"  c #63747D",
". c #7D929E",
"X c gray23",
"o c #4B4B4B",
"O c #232323",
"+ c gray34",
"@ c #2F2F2F",
"# c gray45",
"$ c #FF7B00",
"% c #FFAB5F",
"& c yellow",
"* c #FF9B43",
"= c #E76F00",
"- c #8B5B33",
"; c #D38353",
": c #F3975F",
"> c #FFA773",
", c #9F4F00",
"< c #770000",
"1 c #FF9F63",
"2 c #EB8F5B",
"3 c #2B0000",
"4 c #B30000",
"5 c #DF8B57",
"6 c #CB7F4F",
"7 c #BF7B4B",
"8 c #AB6B43",
"9 c #9F633B",
"0 c #5F4323",
"q c #774F2B",
"w c #2B230F",
"e c #43331B",
"r c #830000",
"t c #6F0000",
"y c #935F37",
"u c #B77347",
"i c #A3673F",
"p c #573F1F",
"a c #83532F",
"s c #6F4B27",
"d c #4B0000",
"f c #FFB383",
"g c #630000",
"h c #676767",
"j c #4B3B1B",
"k c black",
"l c #3B2F17",
"z c #BF0000",
"x c #370000",
"c c #9B0000",
"v c #430000",
"b c white",
/* pixels */
"                                                                                                                               .",
"                                                                                                                               .",
"                                                                                                                               .",
"                                                                                                                               .",
"                                                                                                                               .",
"                                                                                                                               .",
"                                                                                                                               .",
"                                                                                                                               .",
"                                                                                                                               .",
"                                                                                                                               .",
"                                                                                                                               .",
"                                                                                                                               .",
"                                                                                                                               .",
"                                                                                                                               .",
"                                                                                                                               .",
"                                                                                                                               .",
"                                                                                                                               .",
"                                                                                                                               .",
"                                                                                                                               .",
"                                                                                                                               .",
"                                                                                                                               .",
"                                                                                                                               .",
"                                                                                                                               .",
"                                                                                                                               .",
"                                                                                                                               .",
"                                                                                                                               .",
"                                                                                                                               .",
"                                                                                                                               .",
"                                                                                                                               .",
"                                                                                                                               .",
"                                                                                                                               .",
"                                                                                                                               .",
"                                                                                                                               .",
"                                                                                                                               .",
"                                                                                                                               .",
"                                                                                                                               .",
"                                                                                                                               .",
"                                                                                                                               .",
"                                                                                                                               .",
"                                                                                                                               .",
"                                                                                                                               .",
"                                                                                                                               .",
"                                                                                                                               .",
"                                                                                                                               .",
"                                                                                                                               .",
"                                                                                                                               .",
"                                                                                                                               .",
"                                                                                                                               .",
"                                                                                                                               .",
"                                                                                                                               .",
"                                                                                                                               .",
"                                                                                                                               .",
"                                                                                                                               .",
"                                                                                                                               .",
"                                                                                                                               .",
"                                                                                                                               .",
"                                                                                                                               .",
"                                                                                                                               .",
"                                                                                                                               .",
"                                                                                                                               .",
"                                                                                                                               .",
"                                                                                                                               .",
"                                                                                                                               .",
"                                                                                                                               .",
"                                                                                                                               .",
"                                                                                                                               .",
"                                                                                                                               .",
"                                                                                                                               .",
"                                                                                                                               .",
"                                                                                                                               .",
"                                                                                                                               .",
"                                                                                                                               .",
"                                                                                                                               .",
"                                                                                                                               .",
"                                                                                                                               .",
"                                                                                                                               .",
"                                                                                                                               .",
"                                                                                                                               .",
"                                                                                                                               .",
"                                                                                                                               .",
"                                                                                                                               .",
"                                                                                                                               .",
"                                                                                                                               .",
"                                                                                                                               .",
"                                                                                                                               .",
"                                                                                                                               .",
"                                                                                                                               .",
"                                                                                                                               .",
"                                                                                                                               .",
"                                                                                                                               .",
"                                                                                                                               .",
"                                                                                                                               .",
"                                                                                                                               .",
"                                                                                                                               .",
"                                                                                                                               .",
"                                                                                                                               .",
"                                                                                                                               .",
"                                                                                                                               .",
"                                                                  XXXXXXXXXX                                                   .",
"                                                                XXooXXOXoo++XX                                                 .",
"                                                               XXX+XXOOOO@Xo+XX                                                .",
"                                                              XXXo+XXOOOOO@Xo+X                                                .",
"                                                              XXXo+XXOOOOO@Xo+X                                                .",
"                                                             X#@Xo+XXOOOOOOXo+o$%%&&&&&*=                                      .",
"                                                             XO@Xoo+X@@@@@@@oo$%%&&&&&&&*=$                                    .",
"                                                             XXXXXoo++-;:>>>>>>>>,<<<<>>1$=$                                   .",
"                                                             XXXoo-112222:>>>>>,3<444<33,,:5:;                                 .",
"                                                             -;5:22677899000qwwwwwwweee<<r,:;;776                              .",
"                                                          ;511:226788621111>>>1111>>>558w<<t9y722:u                            .",
"                                                       ;111:26uu88u552;;77;555i75>>>>>>158p<tai722225u                         .",
"                                                     ;111:2uiiyyy8;::>>>>>577i--7567772255yp<tau55221111u                      .",
"                                              i>>::;i67uiiiya@@@s11>>>:56222277;2556ii87;;6awdr-u7625211111u                   .",
"                                             i72ff:7iaaaaa@@@@@@@@s11:;uu6226uu6;;6iqq-i766iedtgs99i666521>>>::111:            .",
"                                            i-77669-0p+XXXohhXOOOOOsu5ui99uui99eOOO@@OOqquuipdrgpppsqi66;2212;;;;5:i17i        .",
"                                           i-8i69--0j+OXXXXXXhXOOOOOsui--aii9sekkO@XX@O@0qqasddglepp0qi6i-u2uuuuu6;i2>>7i      .",
"                                           -8-8-rzzrXX@OXXXXXXoOOOkkkiiaa0qspekkkkkkkOoX@ppssddgxleeppqy-0si-----i8y2>>>>7i    .",
"                                        zzr  rrrcccXXXX@OXXXXXoOOkkkkias0ljjwkkkkO@XOkOoX@@eedrgxleeepppppssqqqqqqqsi77--727   .",
"                                                  @XXXXX@OXXXXXOOkkkkaspewwwwkkkO@XXXXOkkO@OOddgx3leepppppppppppppps---jj-27   .",
"                                             zr  @@@XXXXX@OXXXXOkkkkOspewwwwwkkO@XXXXXXXOkkOOOvtddvvxxxxxxxxxxxxxxd            .",
"                                                @@@@@XXXXX@OXOOkkkkkpelwwwlllkkO@XXXXXXO@XXOOOOvgggggggggggggggggd             .",
"                                               @@@@@@@XXXXOOkkkkkkOelwwwlll  kk@XXXXXXO@XXXXOOOOxgggggggdddddddd               .",
"                                               @@@@@@@@XXOkkkkkkOlwwwlll      k@XXXXXO@XXXXXXOOOkddddddd                       .",
"                                              @@@@@@@@@@OkkkkkkOOllll          @XXXXkO@XXXXXX@@Okk                             .",
"                                              @@@@@@@OOkkkkk                     XXkOO@XXXXX@@@@Ok                             .",
"                                               @@@@OOkkkkk                          OO@XXXX@@@@@@k                             .",
"                                                OOOkkkk                               @XXX@@@@@@@                              .",
"                                                                                        X@@@@@@@@                              .",
"................................................................................................................................"
};
