/* XPM */
static char *_a33ee8f1f20476d9cd9e8e45ed126bd3fMGPmqWVwc8sKYz[] = {
/* columns rows colors chars-per-pixel */
"65 65 216 2 ",
"   c None",
".  c #010203",
"X  c #0F0005",
"o  c #01020C",
"O  c #0D010B",
"+  c #060805",
"@  c #130001",
"#  c #1B0102",
"$  c #010114",
"%  c #0C0315",
"&  c #01011B",
"*  c #0A031E",
"=  c #090918",
"-  c #150419",
";  c #091416",
":  c #280201",
">  c #221A00",
",  c #281918",
"<  c #36070B",
"1  c #020124",
"2  c #02012C",
"3  c #0B022B",
"4  c #04092D",
"5  c #080723",
"6  c #1A0023",
"7  c #19162C",
"8  c #020134",
"9  c #0A0235",
"0  c #02023B",
"q  c #0A003B",
"w  c #050A3A",
"e  c #12083D",
"r  c #11023D",
"t  c #191D3B",
"y  c #1C202B",
"u  c #1F2337",
"i  c #232321",
"p  c #352D35",
"a  c #4D1A08",
"s  c #603A15",
"d  c #472825",
"f  c #453229",
"g  c #4A3938",
"h  c #59432C",
"j  c #784F39",
"k  c #010144",
"l  c #0A0046",
"z  c #01014B",
"x  c #0A044A",
"c  c #080C47",
"v  c #130140",
"b  c #150649",
"n  c #061043",
"m  c #010153",
"M  c #02025C",
"N  c #030859",
"B  c #11045B",
"V  c #140A53",
"C  c #00105B",
"Z  c #161B58",
"A  c #353447",
"S  c #020263",
"D  c #02016B",
"F  c #0A066A",
"G  c #000A6A",
"H  c #060863",
"J  c #100160",
"K  c #020173",
"L  c #090473",
"P  c #030B71",
"I  c #01027C",
"U  c #020C7C",
"Y  c #0A087A",
"T  c #00107B",
"R  c #061065",
"E  c #4A3F55",
"W  c #413646",
"Q  c #613B48",
"!  c #49346F",
"~  c #3E4750",
"^  c #4B4B4D",
"/  c #494749",
"(  c #494B55",
")  c #514956",
"_  c #4D5157",
"`  c #555A5B",
"'  c #595358",
"]  c #514B49",
"[  c #775747",
"{  c #744D56",
"}  c #685159",
"|  c #754E52",
" . c #46476A",
".. c #5A5968",
"X. c #5E5B73",
"o. c #4F4A73",
"O. c #6C4B67",
"+. c #6C5B63",
"@. c #665879",
"#. c #5C6562",
"$. c #6B6B6D",
"%. c #636267",
"&. c #74676A",
"*. c #696674",
"=. c #776877",
"-. c #6E7278",
";. c #747478",
":. c #8B5937",
">. c #965434",
",. c #99613E",
"<. c #895C4B",
"1. c #915B41",
"2. c #976349",
"3. c #8E6B56",
"4. c #9C6550",
"5. c #9D705D",
"6. c #8A684F",
"7. c #AC6F4B",
"8. c #A57F52",
"9. c #BD7E5F",
"0. c #80736B",
"q. c #A87562",
"w. c #C6774E",
"e. c #C47E64",
"r. c #96845E",
"t. c #A09353",
"y. c #B88C4F",
"u. c #958878",
"i. c #B78576",
"p. c #BFA66D",
"a. c #C68C58",
"s. c #D68E57",
"d. c #E69659",
"f. c #D2AC5B",
"g. c #D59977",
"h. c #D18C65",
"j. c #EC9C78",
"k. c #D0A16B",
"l. c #EBA376",
"z. c #F6A275",
"x. c #F5A46F",
"c. c #F3C178",
"v. c #010184",
"b. c #02018B",
"n. c #0D058A",
"m. c #050C88",
"M. c #16098A",
"N. c #051385",
"B. c #010293",
"V. c #090092",
"C. c #010A94",
"Z. c #03029B",
"A. c #010A9D",
"S. c #0A0899",
"D. c #021099",
"F. c #0202A2",
"G. c #000AA3",
"H. c #0102AC",
"J. c #0905A8",
"K. c #0013A5",
"L. c #0101B3",
"P. c #0900B3",
"I. c #000AB4",
"U. c #0002BD",
"Y. c #000ABB",
"T. c #0A0AB8",
"R. c #0011B6",
"E. c #0418B8",
"W. c #2A36BA",
"Q. c #66559B",
"!. c #677388",
"~. c #636E95",
"^. c #647393",
"/. c #697699",
"(. c #787E82",
"). c #695FBF",
"_. c #666DAD",
"`. c #0103C4",
"'. c #000BC2",
"]. c #0203CC",
"[. c #040ACE",
"{. c #0B05C8",
"}. c #0104D3",
"|. c #0009D3",
" X c #0003DB",
".X c #0008DC",
"XX c #0103E4",
"oX c #0600EF",
"OX c #0300F0",
"+X c #334EC8",
"@X c #5C77CF",
"#X c #6C6AC4",
"$X c #6363D6",
"%X c #A6798E",
"&X c #7E88B5",
"*X c #99898E",
"=X c #B58584",
"-X c #9F84B1",
";X c #8780A9",
":X c #A485A5",
">X c #AD9BAB",
",X c #CF9D92",
"<X c #CC9187",
"1X c #DCA684",
"2X c #E9A683",
"3X c #FBB687",
"4X c #EFA791",
"5X c #F9B297",
"6X c #C7BDBE",
"7X c #EBAFA4",
"8X c #F7BAA5",
"9X c #FFC095",
"0X c #F6D89A",
"qX c #FFCDA0",
"wX c #FFD5A5",
"eX c #F0D7DA",
/* pixels */
"                                                                                                                                  ",
"                                                                                                                                  ",
"                                                                                                                                  ",
"                                                                                                                                  ",
"                                                                                                                                  ",
"                                                                                                                                  ",
"                                                                                                                                  ",
"                                                                                                                                  ",
"                                                                  W.F.Z.n.                                                        ",
"                                                              W.Z.H.H.J.I z                                                       ",
"                                                            m.G.I.H.G.K 8 $ &                                                     ",
"                                                            D S.G.A.U k $ . +                                                     ",
"                                                            r B K L 8 $ % . >                                                     ",
"                                                          *XeX- v v O # @ @ p.t.                                                  ",
"                                                          r.0X8.< %X,X<.< i.y.                                                    ",
"                                                            f.c.8X7X9.>.8X5Xa.                                                    ",
"                                                            k.3X3X2X2Xl.2X2Xg.                                                    ",
"                                                          u.1X3Xh.9XqXwX3Xh.g.                                                    ",
"                                                          0.1X5Xj.z.z.x.d.s.7.                                                    ",
"                                                    &X1 o . a 4Xj.j.w.l.s.a.a :                                                   ",
"                                                @XG R Z u , d 5.q.4.2.:.:.j d O 3 ;X                                              ",
"                                              T C.C.D Z 7 i 6X&.@ @ { # @ >X@.e k k 0 ^.                                          ",
"                                            K.I.L.F.Y Z u y 2 8 8 b q 0 x k k m D D S k !.                                        ",
"                                          E.'.}.`.H.K Z $ $ w C R M S S S S S S K L D N 0 /.                                      ",
"                                          Y.|.}.`.J.D 0 o o 0 m M F S S D P S G M M S F S k ^.                                    ",
"                                        H.|..X}.L.V.m 2 o o 1 k N H M H S M S S m M D K I S ~.                                    ",
"                                        L.]. XU.S.S k 4 o . % & 8 l k m M M M M F Y b.B.v.K 8                                     ",
"                                      H.[.].|.T.v.m 8 ~ / / O o $ 9 q k 0 z z m K b.J.Z.v.D c ~.                                  ",
"                                      '.].`.Z.n.M.H  .*.-.$.^ ` o o $ 1 2 0 k M v.Z.H.F.I m 8 /.                                  ",
"                                      R.H.G.$X#XJ Q.E / ' %.;.$.^ ` ( o 5 1 k M B.H.L.Z.K z n ~.                                  ",
"                                      U N.$X).b :XQ f f g ) _ #.` ;.-._ ( $ 0 D F.L.F.b.S c 2                                     ",
"                                        C #XV -X=X2.6.[ X W ^ ~ ^ _ ` ;.$.) o.B Y S.A.v.S k ~.                                    ",
"                                          m c :Xi.,.s h O X.) p . . / ^ %.=.*.o. ._.I C.L z                                       ",
"                                          _.4 *Xi.1.6.g - X.*.A o . f f g ' +.&.;.t S I S k                                       ",
"                                            !.' | { +.E & o...A 1 - =X2.[ d ] / ..t z M z 8                                       ",
"                                                =.6 q x k 0 8 2 k 5 <Xe.2.<.} - * 4 k 0 w ^.                                      ",
"                                                  _.Y I I D S F H v =Xh.2.3.} * 2 0 8 w ^.                                        ",
"                                                    m.v.v.v.K D S l O.| { O.! l z k l o.                                          ",
"                                                    D I N.S m m m z q b J M.n.b.v.D z                                             ",
"                                                    P v.D S M z z m S v.J.L.{.{.H.C.K                                             ",
"                                                    U b.b.v.D S M S b.F.`.}. X X].U.G.                                            ",
"                                                    m.Z.B.b.I D H S Z.L.]. XXXXX X].Y.                                            ",
"                                                    v.F.Z.b.I D S D V.H.`.}.XXXX X].E.                                            ",
"                                                    D.F.Z.b.I K D D V.P.`.}.XXXXXX[.R.                                            ",
"                                                    +XA.B.B.v.I D K B.P.].XXoXOXXX|.I.                                            ",
"                                                      A.B.B.v.I K K v.J.`. XXXXX X}.'.                                            ",
"                                                      K.A.B.I I K K K S.L.U.`.`.].`.U.E.                                          ",
"                                                      K.C.b.I K D D D n.Z.F.H.H.H.H.T.B.                                          ",
"                                                      K.v.I U S M M F L I b.Z.Z.Z.B.v.U                                           ",
"                                                      C.K D S G z k k m S L v.I K P M _.                                          ",
"                                                      S M B z k 8 1 1 2 k m S M m 0 n                                             ",
"                                                      z z x l 9 1 $ $ & 2 8 k 0 8 4 $                                             ",
"                                                        0 0 2 1 $ $ $ & 1 2 1 & $ $ o !.                                          ",
"                                                        1 e 9 1 $ o $ $ 1 1 & $ o . o                                             ",
"                                                        4 2 2 1 $ . . o = * $ $ o . (.                                            ",
"                                                        & 2 8 1 $ . . o $ $ & $ o .                                               ",
"                                                        $ 1 2 8 $ o o $ 3 9 2 1 $ .                                               ",
"                                                          7 3 2 & $ $ 2 9 q 9 1 $ . .                                             ",
"                                                          X $ 1 4 1 2 9 8 9 9 1 o o .                                             ",
"                                                        # , % 1 1 1 1 2 8 9 1 $ o . .                                             ",
"                                                          @ - * 5 5 o o o o o = . ;                                               ",
"                                                          p p A A $ . .                                                           ",
"                                                                                                                                  ",
"                                                                                                                                  ",
"                                                                                                                                  "
};
