/* XPM */
static char *_8ca46d0f3054a159060772654774d39b8BQ4oNk3OfpOdYT[] = {
/* columns rows colors chars-per-pixel */
"32 32 4 1 ",
"  c #990030",
". c #FFC20E",
"X c #00B7EF",
"o c white",
/* pixels */
"..........            XXXXXXXXXX",
"..........            XXXXXXXXXX",
"..........            XXXXXXXXXX",
"..........            XXXXXXXXXX",
"..........            XXooooXXXX",
"..........            XoooooXXXX",
".....ooooo            XoooooXXXX",
".....ooooo            XoooooXXXX",
".....oooooo           XooooXXXXX",
".....oooooo           XooooXXXXX",
".....oooooo           XooooXXXXX",
".....oooooooo         XooooXXXXX",
".....ooooooooo        XooooXXXXX",
".....oooooooooo       XooooXXXXX",
".....oooooooooooo     XooooXXXXX",
"....ooooo.oooooooo    XooooXXXXX",
"....ooooo. oooooooo   XooooXXXXX",
"....ooooo.  ooooooooo XooooXXXXX",
"....ooooo.    ooooooooXooooXXXXX",
"....ooooo.     ooooooooooooXXXXX",
"....ooooo.      oooooooooooXXXXX",
".....oooo.        oooooooooXXXXX",
".....oooo.         ooooooooXXXXX",
".....oooo.           oooooXXXXXX",
".....oooo.            ooooXXXXXX",
"..........            XXXXXXXXXX",
"..........            XXXXXXXXXX",
"..........            XXXXXXXXXX",
"..........            XXXXXXXXXX",
"..........            XXXXXXXXXX",
"..........            XXXXXXXXXX",
"..........            XXXXXXXXXX"
};
