/* XPM */
static char *_900e7816ca74a51966e8698c935bb28STaLWwIxTdIhwUWD[] = {
/* columns rows colors chars-per-pixel */
"32 32 4 1 ",
"  c #990030",
". c #FFC20E",
"X c #00B7EF",
"o c white",
/* pixels */
"..........            XXXXXXXXXX",
"..........            XXXXXXXXXX",
".......... oooooooooo XXXXXXXXXX",
"........ooooooooooooo XXXXXXXXXX",
".......oooooooooooooo XXXXXXXXXX",
".......oooooooooooooo XXXXXXXXXX",
"......ooooooooo       XXXXXXXXXX",
"......oooooo          XXXXXXXXXX",
"......ooooo           XXXXXXXXXX",
"......oooo            XXXXXXXXXX",
"......oooooo          XXXXXXXXXX",
"......oooooooo        XXXXXXXXXX",
"......oooooooooooooo  XXXXXXXXXX",
".......oooooooooooooooooXXXXXXXX",
".........ooooooooooooooooXXXXXXX",
".......... ooooooooooooooXXXXXXX",
"..........       oooooooooXXXXXX",
"..........          ooooooXXXXXX",
"..........           oooooXXXXXX",
"..........           oooooXXXXXX",
"..ooooo...           oooooXXXXXX",
"..oooooo..          ooooooXXXXXX",
"..ooooooooooo      ooooooXXXXXXX",
"..oooooooooooooooooooooooXXXXXXX",
"...ooooooooooooooooooooooXXXXXXX",
"....ooooooooooooooooooooXXXXXXXX",
".........ooooooooooooooXXXXXXXXX",
"..........            XXXXXXXXXX",
"..........            XXXXXXXXXX",
"..........            XXXXXXXXXX",
"..........            XXXXXXXXXX",
"..........            XXXXXXXXXX"
};
