/* XPM */
static char *_8b6b586b48e43d5c01ba8f3b3602850DV5NwHJcAhmNoHvg[] = {
/* columns rows colors chars-per-pixel */
"32 32 4 1 ",
"  c #990030",
". c #FFC20E",
"X c #00B7EF",
"o c white",
/* pixels */
"..........            XXXXXXXXXX",
"..........            XXXXXXXXXX",
".ooooooooooooooooooooooooooXXXXX",
".ooooooooooooooooooooooooooXXXXX",
".ooooooooooooooooooooooooooXXXXX",
".ooooooooooooooooooooooooooXXXXX",
"...ooooooo            XXXXXXXXXX",
"...ooooo..            XXXXXXXXXX",
"...ooooo..            XXXXXXXXXX",
"...oooo...            XXXXXXXXXX",
"...oooo...            XXXXXXXXXX",
"...oooo...            XXXXXXXXXX",
"...oooo...            XXXXXXXXXX",
"...oooooooooooooo     XXXXXXXXXX",
"...oooooooooooooo     XXXXXXXXXX",
"...oooooooooooooo     XXXXXXXXXX",
"...oooooooooooooo     XXXXXXXXXX",
"...oooo...            XXXXXXXXXX",
"...oooo...            XXXXXXXXXX",
"...oooo...            XXXXXXXXXX",
"...oooo...            XXXXXXXXXX",
"...oooo...            XXXXXXXXXX",
"...oooo...            XXXXXXXXXX",
"...oooo...            XXXXXXXXXX",
"..ooooo...   ooooooooooooooXXXXX",
"..oooooooooooooooooooooooooXXXXX",
"..oooooooooooooooooooooooooXXXXX",
"..oooooooooooooooooooooooooXXXXX",
"..ooooooooooooooo     XXXXXXXXXX",
"..........            XXXXXXXXXX",
"..........            XXXXXXXXXX",
"..........            XXXXXXXXXX"
};
