/* XPM */
static char *aa699846abe64403ae317ad0768ad886lCsIEsYxQzB4nTsz[] = {
/* columns rows colors chars-per-pixel */
"32 32 4 1 ",
"  c #990030",
". c #FFC20E",
"X c #00B7EF",
"o c white",
/* pixels */
"..........            XXXXXXXXXX",
"..........            XXXXXXXXXX",
"..........            XXXXXXXXXX",
"..........            XXXXXXXXXX",
"..........            XXXXoooooX",
"...oooo...            XXXXoooooX",
"...oooo...            XXXXoooooX",
"...oooo...            XXXooooooX",
"...ooooo..            XXXoooooXX",
"...ooooo..            XXooooooXX",
"...ooooo..            XXoooooXXX",
"...oooooo.            XXoooooXXX",
"....ooooo.            XXoooooXXX",
"....ooooo.   oooo     XXooooXXXX",
".....ooooo  oooooo    XoooooXXXX",
".....ooooo  oooooo    XoooooXXXX",
".....ooooo oooooooo   XoooooXXXX",
".....oooooooooooooo   XoooooXXXX",
"......oooooooooooooo  oooooXXXXX",
"......oooooooooooooo  oooooXXXXX",
".......oooooooooooooo oooooXXXXX",
".......ooooooo oooooooooooXXXXXX",
"........oooooo  ooooooooooXXXXXX",
"........oooooo   oooooooooXXXXXX",
".........oooo     oooooooXXXXXXX",
".........oooo      ooooooXXXXXXX",
"..........          oooooXXXXXXX",
"..........            XXXXXXXXXX",
"..........            XXXXXXXXXX",
"..........            XXXXXXXXXX",
"..........            XXXXXXXXXX",
"..........            XXXXXXXXXX"
};
