/* XPM */
static char *_82df2f736c64f5e997de8590956c06cPLphNntGBd5JI1z8[] = {
/* columns rows colors chars-per-pixel */
"32 32 3 1 ",
"  c #990030",
". c #FFC20E",
"X c #00B7EF",
/* pixels */
"..........            XXXXXXXXXX",
"..........            XXXXXXXXXX",
"..........            XXXXXXXXXX",
"..........            XXXXXXXXXX",
"..........            XXXXXXXXXX",
"..........            XXXXXXXXXX",
"..........            XXXXXXXXXX",
"..........            XXXXXXXXXX",
"..........            XXXXXXXXXX",
"..........            XXXXXXXXXX",
"..........            XXXXXXXXXX",
"..........            XXXXXXXXXX",
"..........            XXXXXXXXXX",
"..........            XXXXXXXXXX",
"..........            XXXXXXXXXX",
"..........            XXXXXXXXXX",
"..........            XXXXXXXXXX",
"..........            XXXXXXXXXX",
"..........            XXXXXXXXXX",
"..........            XXXXXXXXXX",
"..........            XXXXXXXXXX",
"..........            XXXXXXXXXX",
"..........            XXXXXXXXXX",
"..........            XXXXXXXXXX",
"..........            XXXXXXXXXX",
"..........            XXXXXXXXXX",
"..........            XXXXXXXXXX",
"..........            XXXXXXXXXX",
"..........            XXXXXXXXXX",
"..........            XXXXXXXXXX",
"..........            XXXXXXXXXX",
"..........            XXXXXXXXXX"
};
